<svg width="150" height="109" viewBox="0 0 150 109" fill="none" xmlns="http://www.w3.org/2000/svg">
<path fill-rule="evenodd" clip-rule="evenodd" d="M8.4052 66H7.89616C4.6398 66 2 63.3469 2 60.0741C2 56.8013 4.6398 54.1481 7.89616 54.1481C7.91718 54.1481 7.93817 54.1483 7.95914 54.1485C8.48331 49.5584 12.2149 46 16.7404 46C21.5102 46 25.3981 49.9531 25.5781 54.9006C28.4622 55.088 31 57.9133 31 60.8593C31 63.2782 29.2202 66 27.1118 66H12.4498" fill="white"/>
<path d="M8.4052 66H7.89616C4.6398 66 2 63.3469 2 60.0741C2 56.8013 4.6398 54.1481 7.89616 54.1481C7.91718 54.1481 7.93817 54.1483 7.95914 54.1485C8.48331 49.5584 12.2149 46 16.7404 46C21.5102 46 25.3981 49.9531 25.5781 54.9006C28.4622 55.088 31 57.9133 31 60.8593C31 63.2782 29.2202 66 27.1118 66H12.4498" stroke="#FBD072" stroke-width="2.5" stroke-linecap="round"/>
<path fill-rule="evenodd" clip-rule="evenodd" d="M40.4517 98.037C52.8239 82.2419 59 70.5998 59 63.2258C59 51.5031 49.8218 42 38.5 42C27.1782 42 18 51.5031 18 63.2258C18 70.5998 24.1761 82.2419 36.5483 98.037C37.4225 99.153 39.005 99.324 40.0829 98.4188C40.2183 98.3051 40.3419 98.1772 40.4517 98.037Z" fill="white" stroke="#FBD072" stroke-width="2.5"/>
<path d="M23.5474 97.6508C21.3166 98.6228 20 99.8205 20 101.116C20 104.366 28.2827 107 38.5 107C48.7173 107 57 104.366 57 101.116C57 98.9604 53.355 97.0755 47.9183 96.0507M29.3562 96C28.0431 96.2379 26.8304 96.5255 25.7436 96.8547L29.3562 96Z" stroke="#FBD072" stroke-width="2.5" stroke-linecap="round"/>
<path fill-rule="evenodd" clip-rule="evenodd" d="M39 74C44.5228 74 49 69.299 49 63.5C49 57.701 44.5228 53 39 53C33.4772 53 29 57.701 29 63.5C29 65.9013 29.7692 68.1775 31.1605 70.0194C31.8388 70.9173 32.6528 71.6946 33.5685 72.3178C35.1735 73.4101 37.0443 74 39 74Z" fill="white" stroke="#FBD072" stroke-width="2.5"/>
<path fill-rule="evenodd" clip-rule="evenodd" d="M59.8742 43.5185L58.9294 43.1274L59.8742 42.7363C61.0903 42.2329 62.0539 41.2358 62.5405 39.9775L62.9185 39L63.2964 39.9775C63.783 41.2358 64.7466 42.2329 65.9627 42.7363L66.9075 43.1274L65.9627 43.5185C64.7466 44.0219 63.783 45.0189 63.2964 46.2773L62.9185 47.2548L62.5405 46.2773C62.054 45.0189 61.0903 44.0219 59.8742 43.5185Z" stroke="#FBD072" stroke-width="2.5" stroke-linejoin="round"/>
<path fill-rule="evenodd" clip-rule="evenodd" d="M11.9877 75.7337L11.6121 75.6029L12.0048 75.43C12.5103 75.2074 12.9239 74.7988 13.1492 74.2994L13.3242 73.9115L13.4566 74.2826C13.6269 74.7602 13.997 75.1258 14.4805 75.2941L14.8561 75.4249L14.4634 75.5978C13.9579 75.8204 13.5443 76.229 13.319 76.7284L13.144 77.1163L13.0116 76.7452C12.8413 76.2676 12.4712 75.902 11.9877 75.7337Z" stroke="#FBD072" stroke-width="1.5" stroke-linejoin="round"/>
<path fill-rule="evenodd" clip-rule="evenodd" d="M50.6382 89H50.2696C47.9116 89 46 87.0102 46 84.5556C46 82.101 47.9116 80.1111 50.2696 80.1111C50.2849 80.1111 50.3001 80.1112 50.3152 80.1114C50.6948 76.6688 53.397 74 56.6741 74C60.1281 74 62.9435 76.9648 63.0738 80.6755C65.1623 80.816 67 82.935 67 85.1445C67 86.9587 65.7112 89 64.1844 89H53.5671" fill="white"/>
<path d="M50.6382 89H50.2696C47.9116 89 46 87.0102 46 84.5556C46 82.101 47.9116 80.1111 50.2696 80.1111C50.2849 80.1111 50.3001 80.1112 50.3152 80.1114C50.6948 76.6688 53.397 74 56.6741 74C60.1281 74 62.9435 76.9648 63.0738 80.6755C65.1623 80.816 67 82.935 67 85.1445C67 86.9587 65.7112 89 64.1844 89H53.5671" stroke="#FBD072" stroke-width="2.5" stroke-linecap="round"/>
<path d="M119.32 107C118.261 107 117.405 106.212 117.405 105.237C117.405 104.263 118.261 103.475 119.32 103.475H123.017C124.076 103.475 124.999 104.263 124.999 105.236C124.999 106.21 124.21 106.998 123.151 106.998V105.236L123.095 106.998L119.32 107ZM111.659 107H107.829C106.769 107 105.913 106.212 105.913 105.237C105.913 104.263 106.769 103.475 107.829 103.475H111.659C112.718 103.475 113.574 104.263 113.574 105.237C113.574 106.212 112.718 107 111.659 107ZM100.168 107H96.3371C95.278 107 94.4218 106.212 94.4218 105.237C94.4218 104.263 95.278 103.475 96.3371 103.475H100.168C101.227 103.475 102.083 104.263 102.083 105.237C102.083 106.212 101.227 107 100.168 107ZM88.6761 107H84.8456C83.7864 107 82.9303 106.212 82.9303 105.237C82.9303 104.263 83.7864 103.475 84.8456 103.475H88.6761C89.7352 103.475 90.5913 104.263 90.5913 105.237C90.5913 106.212 89.7352 107 88.6761 107ZM77.1846 107H73.354C72.2949 107 71.4388 106.212 71.4388 105.237C71.4388 104.263 72.2949 103.475 73.354 103.475H77.1846C78.2437 103.475 79.0998 104.263 79.0998 105.237C79.0998 106.212 78.2437 107 77.1846 107ZM65.693 107H61.8625C60.8034 107 59.9473 106.212 59.9473 105.237C59.9473 104.263 60.8034 103.475 61.8625 103.475H65.693C66.7522 103.475 67.6083 104.263 67.6083 105.237C67.6083 106.212 66.7522 107 65.693 107ZM129.791 103.972C129.377 103.972 128.96 103.848 128.609 103.594C127.776 102.992 127.634 101.883 128.287 101.12C128.91 100.392 129.337 99.5649 129.557 98.6659C129.789 97.7158 130.814 97.12 131.846 97.3333C132.878 97.5466 133.526 98.4896 133.294 99.4397C132.953 100.836 132.263 102.17 131.298 103.297C130.921 103.741 130.36 103.972 129.791 103.972ZM129.793 94.1657C129.224 94.1657 128.663 93.9348 128.285 93.4924C127.673 92.7749 126.88 92.1809 125.993 91.7755C125.047 91.3419 124.66 90.2842 125.131 89.4117C125.602 88.5409 126.748 88.1831 127.699 88.6185C129.092 89.2548 130.335 90.1873 131.298 91.3119C131.951 92.0769 131.81 93.1857 130.976 93.7867C130.626 94.0406 130.206 94.1657 129.793 94.1657ZM119.322 91.1356H115.492C114.432 91.1356 113.576 90.3477 113.576 89.3729C113.576 88.3981 114.432 87.6102 115.492 87.6102H119.322C120.381 87.6102 121.237 88.3981 121.237 89.3729C121.237 90.3477 120.381 91.1356 119.322 91.1356ZM107.831 91.1356H104C102.941 91.1356 102.085 90.3477 102.085 89.3729C102.085 88.3981 102.941 87.6102 104 87.6102H107.831C108.89 87.6102 109.746 88.3981 109.746 89.3729C109.746 90.3477 108.89 91.1356 107.831 91.1356ZM96.4501 90.42C96.1839 90.42 95.9138 90.3688 95.6553 90.2595C94.2456 89.6673 92.9701 88.7718 91.9646 87.6736C91.2847 86.928 91.3881 85.8157 92.1982 85.19C93.0084 84.5642 94.215 84.6594 94.8968 85.405C95.5365 86.1048 96.3505 86.676 97.2488 87.0549C98.2102 87.4586 98.6335 88.5039 98.193 89.3905C97.8712 90.0374 97.1779 90.42 96.4501 90.42ZM91.5681 81.7051C91.4475 81.7051 91.3268 81.6945 91.2061 81.6734C90.1661 81.4901 89.4881 80.5646 89.6854 79.6092C89.9823 78.1832 90.6105 76.8665 91.549 75.6925C92.1772 74.9081 93.3742 74.7424 94.2265 75.317C95.0788 75.8952 95.2607 76.9987 94.6344 77.7813C94.035 78.5287 93.6366 79.366 93.4489 80.272C93.2708 81.1181 92.4683 81.7051 91.5681 81.7051ZM99.6198 75.28C98.599 75.28 97.7486 74.5379 97.7084 73.5896C97.6663 72.6166 98.486 71.7951 99.5432 71.7564C99.706 71.7493 99.8688 71.7458 100.034 71.7458H103.452C104.511 71.7458 105.368 72.5337 105.368 73.5085C105.368 74.4833 104.511 75.2712 103.452 75.2712L99.7003 75.2783C99.6735 75.28 99.6467 75.28 99.6198 75.28ZM134.508 75.2712H134.096C133.037 75.2712 132.181 74.4833 132.181 73.5085C132.181 72.5337 133.037 71.7458 134.096 71.7458H134.508C135.406 71.7458 136.276 71.5854 137.098 71.2681C138.065 70.8891 139.195 71.3122 139.605 72.2111C140.014 73.1084 139.557 74.1413 138.58 74.5185C137.287 75.0174 135.918 75.2712 134.508 75.2712ZM126.435 75.2712H122.605C121.546 75.2712 120.69 74.4833 120.69 73.5085C120.69 72.5337 121.546 71.7458 122.605 71.7458H126.435C127.494 71.7458 128.351 72.5337 128.351 73.5085C128.351 74.4833 127.494 75.2712 126.435 75.2712ZM114.944 75.2712H111.113C110.054 75.2712 109.198 74.4833 109.198 73.5085C109.198 72.5337 110.054 71.7458 111.113 71.7458H114.944C116.003 71.7458 116.859 72.5337 116.859 73.5085C116.859 74.4833 116.003 75.2712 114.944 75.2712ZM142.778 69.5776C142.6 69.5776 142.418 69.5547 142.24 69.5071C141.225 69.2339 140.643 68.2538 140.94 67.3196C141.12 66.7555 141.212 66.1703 141.212 65.5781C141.215 65.2396 141.185 64.9188 141.131 64.605C140.963 63.6444 141.673 62.7383 142.719 62.585C143.759 62.4263 144.745 63.0838 144.914 64.0463C145.004 64.5627 145.046 65.0827 145.042 65.5904C145.042 66.5052 144.9 67.4236 144.617 68.3103C144.372 69.0788 143.607 69.5776 142.778 69.5776ZM138.817 60.4715C138.492 60.4715 138.161 60.3957 137.858 60.2335C136.99 59.7699 136.044 59.4985 135.042 59.4262C133.987 59.3504 133.2 58.5025 133.282 57.5313C133.365 56.5583 134.29 55.8408 135.341 55.9113C136.918 56.0242 138.413 56.4543 139.779 57.184C140.694 57.6723 141.007 58.7528 140.474 59.5936C140.122 60.156 139.478 60.4715 138.817 60.4715ZM127.531 59.4068H123.7C122.641 59.4068 121.785 58.6189 121.785 57.6441C121.785 56.6693 122.641 55.8814 123.7 55.8814H127.531C128.59 55.8814 129.446 56.6693 129.446 57.6441C129.446 58.6189 128.59 59.4068 127.531 59.4068ZM116.039 59.4068H112.209C111.15 59.4068 110.294 58.6189 110.294 57.6441C110.294 56.6693 111.15 55.8814 112.209 55.8814H116.039C117.098 55.8814 117.955 56.6693 117.955 57.6441C117.955 58.6189 117.098 59.4068 116.039 59.4068ZM104.548 59.4068H100.717C99.6581 59.4068 98.802 58.6189 98.802 57.6441C98.802 56.6693 99.6581 55.8814 100.717 55.8814H104.548C105.607 55.8814 106.463 56.6693 106.463 57.6441C106.463 58.6189 105.607 59.4068 104.548 59.4068ZM93.0563 59.4068H92.3725C91.074 59.405 89.8118 59.19 88.6129 58.7705C87.6246 58.4232 87.1305 57.4044 87.5059 56.4948C87.8851 55.5835 88.9978 55.1322 89.9785 55.476C90.7407 55.7439 91.547 55.8796 92.3764 55.8814H93.0563C94.1154 55.8814 94.9715 56.6693 94.9715 57.6441C94.9715 58.6189 94.1154 59.4068 93.0563 59.4068ZM84.1829 53.9512C83.3785 53.9512 82.6277 53.4806 82.3634 52.7385C82.0148 51.7654 81.8405 50.7466 81.8405 49.7101C81.8425 49.2906 81.8712 48.8834 81.9248 48.4868C82.055 47.5244 82.982 46.8457 84.0641 46.9585C85.1137 47.0784 85.8587 47.9615 85.7247 48.9275C85.6883 49.1866 85.673 49.4528 85.671 49.7189C85.671 50.3711 85.784 51.0181 86.0043 51.6368C86.3337 52.5604 85.7879 53.5581 84.7824 53.8631C84.5832 53.9248 84.3802 53.9512 84.1829 53.9512ZM87.8295 44.734C87.1898 44.734 86.5655 44.4396 86.2016 43.9037C85.6423 43.077 85.9162 41.9894 86.8125 41.4747C88.1532 40.7044 89.6318 40.2355 91.2061 40.0751C92.2653 39.9747 93.2037 40.6674 93.3206 41.6351C93.4374 42.6029 92.677 43.4736 91.6256 43.5812C90.6277 43.6834 89.6892 43.9813 88.8408 44.4678C88.5248 44.6476 88.1762 44.734 87.8295 44.734ZM114.398 43.5424H110.567C109.508 43.5424 108.652 42.7545 108.652 41.7797C108.652 40.8049 109.508 40.017 110.567 40.017H114.398C115.457 40.017 116.313 40.8049 116.313 41.7797C116.313 42.7545 115.457 43.5424 114.398 43.5424ZM102.906 43.5424H99.0759C98.0168 43.5424 97.1607 42.7545 97.1607 41.7797C97.1607 40.8049 98.0168 40.017 99.0759 40.017H102.906C103.966 40.017 104.822 40.8049 104.822 41.7797C104.822 42.7545 103.966 43.5424 102.906 43.5424Z" fill="white"/>
<g filter="url(#filter0_d)">
<ellipse cx="125.5" cy="19" rx="12.5" ry="11" fill="white"/>
<path d="M137 19C137 24.4066 131.975 29 125.5 29C119.025 29 114 24.4066 114 19C114 13.5934 119.025 9 125.5 9C131.975 9 137 13.5934 137 19Z" stroke="white" stroke-width="2"/>
</g>
<path fill-rule="evenodd" clip-rule="evenodd" d="M111 20.7524C111 13.7022 117.484 8 125.5 8C133.516 8 140 13.7022 140 20.7524C140 28.3493 130.844 38.8245 127.095 42.8142C126.266 43.6886 124.754 43.6886 123.926 42.8142C120.156 38.8245 111 28.3493 111 20.7524ZM120.321 20.7524C120.321 23.2665 122.641 25.3069 125.5 25.3069C128.359 25.3069 130.679 23.2665 130.679 20.7524C130.679 18.2384 128.359 16.198 125.5 16.198C122.641 16.198 120.321 18.2384 120.321 20.7524Z" fill="#FF4858"/>
<defs>
<filter id="filter0_d" x="101" y="0" width="49" height="46" filterUnits="userSpaceOnUse" color-interpolation-filters="sRGB">
<feFlood flood-opacity="0" result="BackgroundImageFix"/>
<feColorMatrix in="SourceAlpha" type="matrix" values="0 0 0 0 0 0 0 0 0 0 0 0 0 0 0 0 0 0 127 0"/>
<feOffset dy="4"/>
<feGaussianBlur stdDeviation="6"/>
<feColorMatrix type="matrix" values="0 0 0 0 0 0 0 0 0 0 0 0 0 0 0 0 0 0 0.38 0"/>
<feBlend mode="normal" in2="BackgroundImageFix" result="effect1_dropShadow"/>
<feBlend mode="normal" in="SourceGraphic" in2="effect1_dropShadow" result="shape"/>
</filter>
</defs>
</svg>
