<svg xmlns="http://www.w3.org/2000/svg" viewBox="0 0 12.52 12.55"><defs><style>.cls-1{fill:#fbd072;}.cls-2{fill:none;stroke:#fff;}</style></defs><title>1Ativo 2</title><g id="Camada_2" data-name="Camada 2"><g id="Camada_1-2" data-name="Camada 1"><path class="cls-1" d="M6.05.69c.12-.25.31-.25.42,0l1.43,3a1.06,1.06,0,0,0,.71.53l3.16.48c.27,0,.33.24.14.44L9.61,7.53a1.16,1.16,0,0,0-.27.86l.55,3.35c0,.27-.12.39-.36.25L6.7,10.43a1,1,0,0,0-.88,0L3,12c-.24.14-.4,0-.36-.25l.55-3.35a1.16,1.16,0,0,0-.27-.86L.61,5.18c-.19-.2-.13-.4.15-.44l3.15-.48a1.06,1.06,0,0,0,.71-.53Z"/><path class="cls-2" d="M6.05.69c.12-.25.31-.25.42,0l1.43,3a1.06,1.06,0,0,0,.71.53l3.16.48c.27,0,.33.24.14.44L9.61,7.53a1.16,1.16,0,0,0-.27.86l.55,3.35c0,.27-.12.39-.36.25L6.7,10.43a1,1,0,0,0-.88,0L3,12c-.24.14-.4,0-.36-.25l.55-3.35a1.16,1.16,0,0,0-.27-.86L.61,5.18c-.19-.2-.13-.4.15-.44l3.15-.48a1.06,1.06,0,0,0,.71-.53Z"/></g></g></svg>