<svg width="22" height="22" viewBox="0 0 22 22" fill="none" xmlns="http://www.w3.org/2000/svg">
<path fill-rule="evenodd" clip-rule="evenodd" d="M0 11C0 17.0751 4.92487 22 11 22C17.0751 22 22 17.0751 22 11C22 4.92487 17.0751 0 11 0C4.92487 0 0 4.92487 0 11ZM20 11C20 15.9706 15.9706 20 11 20C6.02944 20 2 15.9706 2 11C2 6.02944 6.02944 2 11 2C15.9706 2 20 6.02944 20 11Z" fill="#FBD072"/>
<path d="M7.86133 12.4369L13.139 7.15895L14.8411 8.86109L9.56342 14.139L7.86133 12.4369Z" fill="#323232"/>
<path d="M7 14.9998L8.88098 14.4788L7.521 13.1188L7 14.9998Z" fill="#323232"/>
<path d="M15.3112 6.26422C14.9581 5.91193 14.3864 5.91193 14.0332 6.26422L13.6499 6.64757L15.352 8.3497L15.7353 7.96635C16.0878 7.61322 16.0878 7.04151 15.7353 6.68837L15.3112 6.26422Z" fill="#323232"/>
</svg>
