<svg width="303" height="229" viewBox="0 0 303 229" fill="none" xmlns="http://www.w3.org/2000/svg">
<path d="M62.5756 96.557L61.3602 96.9519C61.2575 96.9856 61.1492 96.9988 61.0415 96.9905C60.9338 96.9822 60.8287 96.9527 60.7325 96.9036C60.6362 96.8546 60.5506 96.7869 60.4805 96.7047C60.4105 96.6224 60.3575 96.527 60.3245 96.4241L59.9292 95.2078C59.809 94.8053 59.5401 94.4636 59.1771 94.2521C58.8141 94.0407 58.3843 93.9752 57.9748 94.0691C57.7649 94.126 57.5687 94.2248 57.398 94.3595C57.2273 94.4943 57.0857 94.6622 56.9817 94.8533C56.8777 95.0443 56.8135 95.2543 56.7929 95.4709C56.7723 95.6874 56.7958 95.9058 56.862 96.1129L57.2853 97.4158C57.3191 97.5185 57.3322 97.6268 57.324 97.7345C57.3157 97.8422 57.2862 97.9473 57.2371 98.0435C57.188 98.1398 57.1204 98.2254 57.0381 98.2955C56.9558 98.3655 56.8605 98.4185 56.7576 98.4515L55.5422 98.8464C55.1404 98.9663 54.7992 99.2344 54.5875 99.5963C54.3758 99.9583 54.3095 100.387 54.402 100.796C54.4589 101.006 54.5577 101.202 54.6924 101.373C54.8272 101.544 54.9951 101.685 55.1861 101.789C55.3771 101.893 55.5872 101.957 55.8037 101.978C56.0202 101.999 56.2387 101.975 56.4458 101.909L57.7487 101.486C57.8513 101.452 57.9597 101.439 58.0674 101.447C58.1751 101.455 58.2802 101.485 58.3764 101.534C58.4727 101.583 58.5583 101.651 58.6283 101.733C58.6984 101.815 58.7514 101.91 58.7844 102.013L59.1793 103.229C59.299 103.632 59.5678 103.974 59.9311 104.187C60.2943 104.399 60.7247 104.464 61.1347 104.37C61.3446 104.313 61.5408 104.215 61.7115 104.08C61.8822 103.945 62.0238 103.777 62.1278 103.586C62.2318 103.395 62.296 103.185 62.3166 102.969C62.3372 102.752 62.3137 102.534 62.2475 102.326L61.8248 101.025C61.791 100.923 61.7779 100.814 61.7862 100.707C61.7944 100.599 61.824 100.494 61.873 100.398C61.9221 100.301 61.9897 100.216 62.072 100.146C62.1543 100.076 62.2496 100.023 62.3525 99.9897L63.6554 99.5664C63.8619 99.4982 64.0524 99.3888 64.2155 99.2449C64.3785 99.101 64.5108 98.9256 64.6042 98.7292C64.6975 98.5327 64.7502 98.3195 64.7589 98.1022C64.7676 97.8848 64.7322 97.668 64.6548 97.4648C64.4827 97.0824 64.1746 96.7776 63.7903 96.6098C63.406 96.442 62.973 96.4231 62.5756 96.557Z" fill="#FEEB72"/>
<path d="M5.16376 77.6491L4.56097 77.4875C4.45849 77.46 4.37113 77.3929 4.31809 77.301C4.26506 77.2092 4.2507 77.1 4.27817 76.9975L4.44005 76.3937C4.49728 76.197 4.47753 75.9858 4.3848 75.8031C4.29208 75.6204 4.13333 75.4797 3.94075 75.4098C3.83981 75.3772 3.73333 75.3655 3.62774 75.3753C3.52214 75.385 3.41962 75.4161 3.32635 75.4666C3.23308 75.517 3.15101 75.5859 3.08508 75.6689C3.01915 75.752 2.97073 75.8475 2.94274 75.9498L2.76973 76.5951C2.75612 76.6459 2.73266 76.6934 2.70067 76.7351C2.66868 76.7768 2.6288 76.8117 2.5833 76.838C2.5378 76.8643 2.48757 76.8813 2.43548 76.8881C2.3834 76.895 2.33047 76.8915 2.27973 76.8779L1.67598 76.716C1.47986 76.6589 1.26936 76.6783 1.08695 76.7702C0.904537 76.8621 0.763773 77.0198 0.693047 77.2115C0.660528 77.3124 0.648795 77.4189 0.658556 77.5245C0.668317 77.6301 0.699369 77.7326 0.749839 77.8259C0.800309 77.9191 0.869151 78.0012 0.95221 78.0671C1.03527 78.1331 1.13082 78.1815 1.23311 78.2095L1.8784 78.3825C1.92914 78.3961 1.97671 78.4196 2.01838 78.4516C2.06006 78.4835 2.09502 78.5234 2.12128 78.5689C2.14754 78.6144 2.16458 78.6646 2.17143 78.7167C2.17828 78.7688 2.1748 78.8217 2.1612 78.8725L1.99958 79.4753C1.94152 79.672 1.96054 79.8835 2.05278 80.0667C2.14502 80.2499 2.30356 80.3911 2.49618 80.4616C2.59711 80.4941 2.70359 80.5059 2.80919 80.4961C2.91478 80.4864 3.01731 80.4553 3.11057 80.4048C3.20384 80.3544 3.28591 80.2855 3.35184 80.2025C3.41777 80.1194 3.46619 80.0238 3.49418 79.9216L3.66667 79.2782C3.69415 79.1757 3.76121 79.0884 3.8531 79.0353C3.945 78.9823 4.0542 78.9679 4.15667 78.9954L4.80196 79.1684C4.90453 79.1954 5.01149 79.2012 5.11639 79.1857C5.22129 79.1702 5.32196 79.1335 5.41232 79.078C5.50268 79.0225 5.58086 78.9493 5.64213 78.8627C5.70341 78.7762 5.74652 78.6781 5.76886 78.5745C5.80064 78.3726 5.75633 78.1662 5.64452 77.9952C5.53271 77.8243 5.36138 77.7009 5.16376 77.6491Z" fill="#F98585"/>
<path d="M74.4016 55.9243L73.6126 55.4688C73.5459 55.4306 73.4874 55.3795 73.4405 55.3186C73.3936 55.2577 73.3592 55.1881 73.3393 55.1138C73.3194 55.0395 73.3143 54.9621 73.3245 54.8858C73.3347 54.8096 73.3598 54.7361 73.3985 54.6697L73.856 53.8773C74.0113 53.6217 74.0637 53.3166 74.0024 53.0239C73.9411 52.7312 73.7707 52.4728 73.5259 52.301C73.3961 52.2179 73.2508 52.1617 73.0988 52.1359C72.9468 52.1101 72.7911 52.1153 72.6411 52.151C72.4912 52.1868 72.3499 52.2524 72.2259 52.344C72.1018 52.4355 71.9975 52.5512 71.9192 52.684L71.4312 53.5292C71.3929 53.5959 71.3419 53.6545 71.281 53.7014C71.2201 53.7483 71.1504 53.7827 71.0762 53.8026C71.0019 53.8225 70.9244 53.8275 70.8482 53.8173C70.772 53.8072 70.6985 53.782 70.632 53.7433L69.8396 53.2858C69.5841 53.1305 69.279 53.0782 68.9863 53.1395C68.6936 53.2008 68.4351 53.3711 68.2634 53.616C68.1801 53.746 68.1239 53.8915 68.0982 54.0438C68.0725 54.1961 68.0778 54.352 68.1138 54.5022C68.1498 54.6523 68.2157 54.7937 68.3077 54.9178C68.3996 55.0418 68.5157 55.1461 68.6489 55.2242L69.4942 55.7122C69.5609 55.7504 69.6194 55.8015 69.6663 55.8624C69.7132 55.9233 69.7476 55.9929 69.7675 56.0672C69.7874 56.1415 69.7925 56.2189 69.7823 56.2952C69.7721 56.3714 69.747 56.4448 69.7083 56.5113L69.2508 57.3037C69.0955 57.5591 69.0432 57.864 69.1043 58.1566C69.1654 58.4492 69.3355 58.7076 69.58 58.8795C69.7101 58.9628 69.8556 59.019 70.0079 59.0447C70.1602 59.0704 70.3161 59.0651 70.4662 59.0291C70.6164 58.9931 70.7578 58.9271 70.8819 58.8352C71.0059 58.7432 71.1102 58.6271 71.1883 58.4939L71.6748 57.6513C71.713 57.5846 71.764 57.526 71.825 57.4791C71.8859 57.4322 71.9555 57.3978 72.0298 57.3779C72.1041 57.358 72.1815 57.353 72.2578 57.3632C72.334 57.3733 72.4074 57.3985 72.4739 57.4372L73.3191 57.9252C73.4534 58.0015 73.6017 58.0499 73.7551 58.0675C73.9086 58.0851 74.064 58.0715 74.212 58.0276C74.3601 57.9837 74.4978 57.9103 74.6168 57.8119C74.7358 57.7135 74.8337 57.5921 74.9047 57.4549C75.0257 57.1828 75.0412 56.8755 74.9482 56.5926C74.8552 56.3098 74.6604 56.0715 74.4016 55.9243Z" fill="#2EE2B1"/>
<path d="M233.255 13.564L231.885 12.9822C231.768 12.9334 231.663 12.8621 231.574 12.7722C231.486 12.6824 231.416 12.576 231.368 12.459C231.321 12.342 231.297 12.2169 231.299 12.0907C231.3 11.9646 231.327 11.8399 231.376 11.724L231.96 10.349C232.163 9.90198 232.188 9.39462 232.03 8.92991C231.872 8.4652 231.543 8.07797 231.11 7.84683C230.882 7.7363 230.634 7.67308 230.381 7.66097C230.127 7.64887 229.874 7.68812 229.636 7.77639C229.399 7.86465 229.181 8.00009 228.997 8.17455C228.813 8.34902 228.666 8.55891 228.566 8.7916L227.94 10.2652C227.891 10.3815 227.82 10.487 227.73 10.5757C227.64 10.6643 227.534 10.7342 227.417 10.7815C227.3 10.8287 227.175 10.8523 227.049 10.851C226.922 10.8496 226.798 10.8233 226.682 10.7735L225.307 10.1897C224.86 9.98707 224.352 9.96213 223.888 10.12C223.423 10.2778 223.036 10.6065 222.805 11.0395C222.694 11.2677 222.631 11.5159 222.619 11.7692C222.607 12.0225 222.646 12.2756 222.734 12.5133C222.822 12.7511 222.958 12.9685 223.132 13.1525C223.307 13.3365 223.517 13.4833 223.749 13.5841L225.223 14.2097C225.339 14.2585 225.445 14.3299 225.533 14.4197C225.622 14.5095 225.692 14.616 225.739 14.7329C225.787 14.8499 225.81 14.9751 225.809 15.1012C225.807 15.2274 225.781 15.352 225.731 15.4679L225.149 16.8384C224.946 17.2855 224.921 17.7932 225.079 18.2583C225.236 18.7235 225.565 19.1111 225.998 19.3424C226.227 19.453 226.475 19.5162 226.729 19.5282C226.982 19.5403 227.235 19.5009 227.473 19.4124C227.711 19.324 227.929 19.1883 228.113 19.0136C228.297 18.8389 228.443 18.6287 228.544 18.3957L229.17 16.9221C229.218 16.8058 229.29 16.7003 229.379 16.6117C229.469 16.5231 229.576 16.4531 229.693 16.4059C229.81 16.3586 229.935 16.335 230.061 16.3364C230.187 16.3377 230.312 16.3641 230.428 16.4139L231.901 17.0395C232.136 17.1372 232.387 17.1865 232.641 17.1844C232.895 17.1823 233.145 17.1288 233.378 17.0273C233.61 16.9257 233.82 16.7781 233.994 16.5934C234.168 16.4087 234.303 16.1907 234.39 15.9525C234.53 15.4845 234.492 14.9812 234.282 14.54C234.072 14.0988 233.706 13.751 233.255 13.564Z" fill="#FEEB72"/>
<path d="M257.026 146.27L256.265 146.051C256.2 146.033 256.14 146.002 256.088 145.961C256.035 145.919 255.992 145.868 255.959 145.809C255.927 145.751 255.906 145.686 255.899 145.62C255.891 145.553 255.897 145.486 255.916 145.422L256.134 144.661C256.211 144.414 256.191 144.146 256.078 143.912C255.965 143.679 255.767 143.497 255.525 143.403C255.398 143.36 255.264 143.343 255.13 143.353C254.996 143.363 254.866 143.4 254.747 143.462C254.627 143.523 254.522 143.608 254.436 143.711C254.351 143.815 254.286 143.934 254.248 144.062L254.014 144.878C253.996 144.942 253.965 145.002 253.924 145.055C253.882 145.107 253.83 145.151 253.772 145.183C253.713 145.216 253.649 145.236 253.583 145.244C253.516 145.251 253.449 145.245 253.384 145.227L252.624 145.009C252.376 144.932 252.108 144.952 251.875 145.065C251.641 145.178 251.459 145.375 251.366 145.617C251.323 145.744 251.306 145.879 251.316 146.012C251.326 146.146 251.363 146.276 251.425 146.396C251.486 146.515 251.571 146.62 251.674 146.706C251.777 146.792 251.897 146.856 252.025 146.894L252.84 147.128C252.905 147.146 252.965 147.177 253.017 147.219C253.07 147.26 253.113 147.312 253.146 147.37C253.178 147.429 253.199 147.493 253.206 147.56C253.214 147.626 253.208 147.694 253.189 147.758L252.971 148.518C252.893 148.767 252.913 149.035 253.026 149.27C253.139 149.504 253.337 149.687 253.58 149.781C253.707 149.824 253.842 149.841 253.976 149.83C254.11 149.82 254.24 149.783 254.359 149.721C254.479 149.659 254.584 149.574 254.67 149.471C254.756 149.367 254.819 149.247 254.858 149.118L255.092 148.302C255.11 148.238 255.141 148.178 255.182 148.125C255.224 148.073 255.275 148.029 255.334 147.997C255.392 147.964 255.457 147.944 255.523 147.936C255.59 147.929 255.657 147.935 255.721 147.953L256.537 148.187C256.666 148.223 256.801 148.232 256.935 148.214C257.068 148.197 257.196 148.152 257.312 148.084C257.427 148.015 257.528 147.924 257.608 147.816C257.687 147.708 257.745 147.585 257.776 147.454C257.82 147.199 257.767 146.937 257.629 146.718C257.49 146.499 257.276 146.339 257.026 146.27Z" fill="#E8EEFF"/>
<path d="M292.859 80.9048L292.264 81.2346C292.214 81.2625 292.159 81.2802 292.103 81.2868C292.046 81.2934 291.989 81.2887 291.934 81.273C291.879 81.2572 291.828 81.2308 291.783 81.1951C291.738 81.1595 291.701 81.1154 291.674 81.0653L291.345 80.4729C291.242 80.2767 291.068 80.127 290.859 80.0543C290.65 79.9815 290.42 79.9911 290.218 80.0811C290.115 80.1318 290.024 80.2026 289.95 80.2894C289.875 80.3761 289.819 80.477 289.784 80.586C289.749 80.695 289.737 80.8099 289.748 80.9237C289.759 81.0376 289.792 81.1481 289.847 81.2486L290.198 81.8813C290.226 81.9311 290.243 81.9859 290.25 82.0426C290.256 82.0993 290.252 82.1568 290.236 82.2117C290.22 82.2665 290.194 82.3178 290.158 82.3624C290.123 82.407 290.078 82.444 290.028 82.4715L289.436 82.7998C289.238 82.9029 289.088 83.0776 289.015 83.2882C288.942 83.4987 288.952 83.7292 289.043 83.9325C289.094 84.0355 289.165 84.1272 289.252 84.2021C289.339 84.2769 289.44 84.3334 289.55 84.3681C289.659 84.4028 289.775 84.4149 289.889 84.4039C290.003 84.3928 290.114 84.3587 290.215 84.3036L290.847 83.953C290.897 83.9249 290.951 83.9069 291.008 83.9C291.064 83.8931 291.122 83.8974 291.176 83.9128C291.231 83.9281 291.283 83.9541 291.327 83.9892C291.372 84.0244 291.409 84.0681 291.437 84.1178L291.767 84.7128C291.87 84.9103 292.045 85.061 292.255 85.134C292.466 85.207 292.696 85.1967 292.9 85.1053C293.003 85.0546 293.094 84.9837 293.169 84.8967C293.244 84.8096 293.301 84.7084 293.335 84.5989C293.37 84.4895 293.382 84.3742 293.371 84.2599C293.36 84.1457 293.326 84.0349 293.271 83.9341L292.918 83.2971C292.89 83.2473 292.872 83.1925 292.865 83.1358C292.859 83.0791 292.864 83.0216 292.879 82.9667C292.895 82.9118 292.922 82.8606 292.957 82.816C292.993 82.7714 293.037 82.7343 293.087 82.7069L293.72 82.3562C293.82 82.3 293.907 82.2241 293.977 82.1331C294.047 82.042 294.098 81.9378 294.127 81.8266C294.155 81.7155 294.161 81.5996 294.144 81.4862C294.126 81.3727 294.086 81.2639 294.026 81.1664C293.898 80.9862 293.708 80.8597 293.493 80.8114C293.277 80.7631 293.051 80.7963 292.859 80.9048Z" fill="#E8EEFF"/>
<path d="M223.237 116.704L222.926 116.876C222.9 116.891 222.871 116.9 222.841 116.904C222.811 116.907 222.781 116.905 222.752 116.896C222.724 116.888 222.697 116.874 222.673 116.855C222.65 116.837 222.63 116.814 222.616 116.787L222.444 116.477C222.389 116.374 222.298 116.296 222.188 116.258C222.078 116.22 221.958 116.226 221.852 116.273C221.798 116.299 221.75 116.337 221.71 116.382C221.671 116.427 221.641 116.48 221.623 116.537C221.605 116.595 221.598 116.655 221.603 116.715C221.609 116.774 221.626 116.833 221.655 116.885L221.839 117.218C221.854 117.244 221.863 117.273 221.866 117.303C221.87 117.333 221.867 117.363 221.859 117.392C221.851 117.42 221.837 117.447 221.818 117.471C221.799 117.494 221.776 117.514 221.75 117.528L221.439 117.7C221.337 117.755 221.259 117.846 221.221 117.956C221.183 118.066 221.188 118.186 221.236 118.292C221.262 118.347 221.3 118.395 221.345 118.434C221.391 118.474 221.444 118.503 221.502 118.521C221.56 118.54 221.62 118.546 221.68 118.54C221.74 118.534 221.799 118.516 221.852 118.487L222.181 118.305C222.207 118.29 222.236 118.281 222.265 118.278C222.295 118.274 222.325 118.277 222.354 118.285C222.383 118.293 222.41 118.307 222.433 118.326C222.457 118.345 222.476 118.368 222.491 118.394L222.663 118.705C222.717 118.808 222.808 118.887 222.918 118.926C223.029 118.964 223.149 118.96 223.256 118.912C223.31 118.886 223.359 118.848 223.398 118.803C223.437 118.757 223.467 118.703 223.485 118.646C223.503 118.588 223.51 118.528 223.504 118.468C223.498 118.408 223.48 118.349 223.451 118.296L223.267 117.964C223.252 117.938 223.243 117.909 223.239 117.879C223.236 117.849 223.238 117.819 223.247 117.79C223.255 117.761 223.269 117.734 223.288 117.711C223.306 117.688 223.329 117.668 223.356 117.654L223.688 117.469C223.741 117.44 223.787 117.4 223.824 117.352C223.861 117.304 223.887 117.249 223.902 117.191C223.917 117.132 223.92 117.072 223.911 117.012C223.902 116.952 223.881 116.895 223.849 116.844C223.783 116.749 223.683 116.682 223.57 116.656C223.457 116.63 223.338 116.647 223.237 116.704Z" fill="#D1DCFC"/>
<path d="M95.1392 72.2998L94.6403 72.1847C94.5982 72.1751 94.5583 72.1572 94.5231 72.1322C94.4878 72.1071 94.4579 72.0753 94.435 72.0387C94.4121 72.002 94.3966 71.9612 94.3895 71.9185C94.3825 71.8758 94.3839 71.8322 94.3938 71.7901L94.5092 71.2902C94.5511 71.1277 94.5298 70.9552 94.4496 70.8077C94.3693 70.6603 94.2361 70.5487 94.0768 70.4956C93.9931 70.4719 93.9054 70.4653 93.8191 70.4763C93.7327 70.4873 93.6495 70.5157 93.5744 70.5597C93.4993 70.6038 93.4339 70.6626 93.3822 70.7325C93.3304 70.8025 93.2933 70.8822 93.2732 70.9669L93.1497 71.5019C93.1401 71.544 93.1223 71.5839 93.0972 71.6191C93.0722 71.6544 93.0404 71.6843 93.0037 71.7072C92.967 71.7301 92.9262 71.7456 92.8835 71.7526C92.8409 71.7597 92.7972 71.7583 92.7551 71.7484L92.2524 71.6323C92.0898 71.5904 91.9174 71.6117 91.7699 71.6919C91.6224 71.7722 91.5108 71.9054 91.4577 72.0647C91.434 72.1484 91.4274 72.2361 91.4384 72.3224C91.4494 72.4088 91.4778 72.492 91.5219 72.5671C91.5659 72.6422 91.6247 72.7076 91.6947 72.7593C91.7646 72.8111 91.8444 72.8482 91.929 72.8683L92.464 72.9918C92.5061 73.0014 92.546 73.0192 92.5812 73.0443C92.6165 73.0693 92.6464 73.1011 92.6693 73.1378C92.6922 73.1745 92.7077 73.2153 92.7148 73.258C92.7218 73.3006 92.7204 73.3443 92.7105 73.3864L92.5954 73.8852C92.5534 74.0478 92.5747 74.2203 92.655 74.3677C92.7352 74.5152 92.8684 74.6268 93.0277 74.6799C93.1114 74.7036 93.1991 74.7102 93.2855 74.6992C93.3718 74.6882 93.455 74.6598 93.5301 74.6157C93.6052 74.5717 93.6706 74.5129 93.7223 74.4429C93.7741 74.373 93.8112 74.2932 93.8313 74.2086L93.9539 73.6775C93.9635 73.6354 93.9813 73.5955 94.0064 73.5603C94.0315 73.525 94.0632 73.4951 94.0999 73.4722C94.1366 73.4493 94.1774 73.4338 94.2201 73.4267C94.2627 73.4197 94.3064 73.4211 94.3485 73.431L94.8834 73.5545C94.9684 73.5735 95.0563 73.5751 95.1419 73.5593C95.2274 73.5434 95.3089 73.5104 95.3814 73.4622C95.4539 73.4141 95.5159 73.3517 95.5637 73.2789C95.6114 73.2061 95.644 73.1245 95.6593 73.0388C95.6788 72.8732 95.6366 72.7062 95.5406 72.5698C95.4446 72.4335 95.3017 72.3373 95.1392 72.2998Z" fill="#E8EEFF"/>
<path d="M171.134 28.5128L170.703 29.0444C170.667 29.0895 170.622 29.1271 170.572 29.1548C170.521 29.1825 170.465 29.1999 170.408 29.2059C170.35 29.212 170.292 29.2066 170.236 29.19C170.181 29.1735 170.129 29.1461 170.085 29.1095L169.551 28.6771C169.379 28.5325 169.159 28.4584 168.935 28.4696C168.711 28.4809 168.5 28.5768 168.343 28.7379C168.267 28.8247 168.208 28.9261 168.171 29.0361C168.134 29.1461 168.12 29.2624 168.129 29.378C168.139 29.4936 168.171 29.6061 168.225 29.7089C168.279 29.8116 168.353 29.9025 168.442 29.976L169.013 30.4379C169.058 30.4741 169.095 30.5189 169.123 30.5697C169.151 30.6205 169.168 30.6763 169.174 30.7338C169.18 30.7913 169.175 30.8495 169.158 30.9049C169.142 30.9604 169.114 31.012 169.078 31.0568L168.642 31.5946C168.498 31.7661 168.423 31.9861 168.435 32.2102C168.446 32.4343 168.542 32.6457 168.703 32.8019C168.79 32.8787 168.891 32.9373 169.001 32.9741C169.111 33.0108 169.228 33.025 169.343 33.0158C169.459 33.0066 169.571 32.9741 169.674 32.9204C169.777 32.8666 169.868 32.7927 169.941 32.703L170.403 32.1326C170.439 32.0875 170.484 32.0499 170.535 32.0222C170.586 31.9945 170.641 31.9771 170.699 31.9711C170.756 31.965 170.815 31.9704 170.87 31.987C170.926 32.0035 170.977 32.0309 171.022 32.0675L171.554 32.4986C171.726 32.6432 171.946 32.7174 172.17 32.7061C172.394 32.6948 172.605 32.599 172.762 32.4379C172.838 32.351 172.897 32.2496 172.934 32.1396C172.971 32.0296 172.985 31.9134 172.975 31.7978C172.966 31.6822 172.934 31.5696 172.88 31.4669C172.826 31.3641 172.752 31.2732 172.663 31.1997L172.098 30.7422C172.053 30.706 172.015 30.6612 171.987 30.6104C171.96 30.5597 171.942 30.5039 171.936 30.4463C171.93 30.3888 171.936 30.3306 171.952 30.2752C171.969 30.2198 171.996 30.1682 172.033 30.1234L172.495 29.5529C172.567 29.4624 172.62 29.3581 172.652 29.2465C172.683 29.1348 172.691 29.0179 172.676 28.9029C172.661 28.7879 172.623 28.6772 172.564 28.5772C172.505 28.4773 172.427 28.3903 172.334 28.3213C172.146 28.1975 171.919 28.1486 171.697 28.184C171.475 28.2195 171.274 28.3368 171.134 28.5128Z" fill="#E8EEFF"/>
<path d="M133.14 2.29984L132.641 2.18467C132.599 2.17507 132.559 2.15723 132.524 2.13217C132.489 2.10711 132.459 2.07534 132.436 2.03866C132.413 2.00199 132.398 1.96115 132.391 1.91849C132.383 1.87583 132.385 1.8322 132.395 1.79009L132.51 1.29024C132.552 1.12766 132.531 0.955228 132.451 0.807744C132.37 0.66026 132.237 0.548712 132.078 0.495621C131.994 0.471855 131.906 0.465283 131.82 0.476303C131.734 0.487322 131.65 0.515704 131.575 0.559739C131.5 0.603775 131.435 0.662552 131.383 0.732531C131.331 0.802509 131.294 0.882242 131.274 0.966926L131.151 1.50185C131.141 1.54402 131.123 1.58387 131.098 1.61911C131.073 1.65435 131.041 1.68429 131.005 1.70721C130.968 1.73012 130.927 1.74556 130.885 1.75263C130.842 1.7597 130.798 1.75827 130.756 1.74841L130.253 1.63234C130.091 1.59039 129.918 1.61169 129.771 1.69193C129.623 1.77217 129.512 1.90538 129.459 2.06467C129.435 2.14841 129.428 2.23609 129.439 2.32243C129.45 2.40877 129.479 2.49199 129.523 2.56708C129.567 2.64216 129.626 2.70756 129.696 2.75932C129.766 2.81109 129.845 2.84815 129.93 2.86829L130.465 2.99178C130.507 3.00138 130.547 3.01922 130.582 3.04428C130.617 3.06934 130.647 3.10112 130.67 3.13779C130.693 3.17446 130.709 3.2153 130.716 3.25796C130.723 3.30062 130.721 3.34426 130.712 3.38636L130.596 3.88524C130.554 4.04781 130.576 4.22025 130.656 4.36773C130.736 4.51522 130.869 4.62677 131.029 4.67986C131.112 4.70362 131.2 4.7102 131.286 4.69918C131.373 4.68816 131.456 4.65977 131.531 4.61574C131.606 4.5717 131.672 4.51293 131.723 4.44295C131.775 4.37297 131.812 4.29324 131.832 4.20855L131.955 3.67752C131.964 3.63536 131.982 3.59551 132.007 3.56027C132.032 3.52502 132.064 3.49508 132.101 3.47217C132.138 3.44925 132.178 3.43382 132.221 3.42675C132.264 3.41967 132.307 3.42111 132.349 3.43096L132.884 3.55446C132.969 3.57349 133.057 3.57513 133.143 3.55928C133.228 3.54343 133.31 3.51042 133.382 3.46224C133.455 3.41405 133.517 3.3517 133.565 3.27892C133.612 3.20615 133.645 3.12446 133.66 3.03878C133.68 2.87318 133.638 2.7062 133.542 2.56984C133.446 2.43348 133.303 2.33734 133.14 2.29984Z" fill="#E8EEFF"/>
<path d="M95.1392 107.3L94.6403 107.185C94.5982 107.175 94.5583 107.157 94.5231 107.132C94.4878 107.107 94.4579 107.075 94.435 107.039C94.4121 107.002 94.3966 106.961 94.3895 106.918C94.3825 106.876 94.3839 106.832 94.3938 106.79L94.5092 106.29C94.5511 106.128 94.5298 105.955 94.4496 105.808C94.3693 105.66 94.2361 105.549 94.0768 105.496C93.9931 105.472 93.9054 105.465 93.8191 105.476C93.7327 105.487 93.6495 105.516 93.5744 105.56C93.4993 105.604 93.4339 105.663 93.3822 105.733C93.3304 105.803 93.2933 105.882 93.2732 105.967L93.1497 106.502C93.1401 106.544 93.1223 106.584 93.0972 106.619C93.0722 106.654 93.0404 106.684 93.0037 106.707C92.967 106.73 92.9262 106.746 92.8835 106.753C92.8409 106.76 92.7972 106.758 92.7551 106.748L92.2524 106.632C92.0898 106.59 91.9174 106.612 91.7699 106.692C91.6224 106.772 91.5108 106.905 91.4577 107.065C91.434 107.148 91.4274 107.236 91.4384 107.322C91.4494 107.409 91.4778 107.492 91.5219 107.567C91.5659 107.642 91.6247 107.708 91.6947 107.759C91.7646 107.811 91.8444 107.848 91.929 107.868L92.464 107.992C92.5061 108.001 92.546 108.019 92.5812 108.044C92.6165 108.069 92.6464 108.101 92.6693 108.138C92.6922 108.174 92.7077 108.215 92.7148 108.258C92.7218 108.301 92.7204 108.344 92.7105 108.386L92.5954 108.885C92.5534 109.048 92.5747 109.22 92.655 109.368C92.7352 109.515 92.8684 109.627 93.0277 109.68C93.1114 109.704 93.1991 109.71 93.2855 109.699C93.3718 109.688 93.455 109.66 93.5301 109.616C93.6052 109.572 93.6706 109.513 93.7223 109.443C93.7741 109.373 93.8112 109.293 93.8313 109.209L93.9539 108.678C93.9635 108.635 93.9813 108.596 94.0064 108.56C94.0315 108.525 94.0632 108.495 94.0999 108.472C94.1366 108.449 94.1774 108.434 94.2201 108.427C94.2627 108.42 94.3064 108.421 94.3485 108.431L94.8834 108.554C94.9684 108.573 95.0563 108.575 95.1419 108.559C95.2274 108.543 95.3089 108.51 95.3814 108.462C95.4539 108.414 95.5159 108.352 95.5637 108.279C95.6114 108.206 95.644 108.124 95.6593 108.039C95.6788 107.873 95.6366 107.706 95.5406 107.57C95.4446 107.433 95.3017 107.337 95.1392 107.3Z" fill="#D1DCFC"/>
<path d="M33.1392 67.2998L32.6403 67.1847C32.5982 67.1751 32.5583 67.1572 32.5231 67.1322C32.4878 67.1071 32.4579 67.0753 32.435 67.0387C32.4121 67.002 32.3966 66.9612 32.3895 66.9185C32.3825 66.8758 32.3839 66.8322 32.3938 66.7901L32.5092 66.2902C32.5511 66.1277 32.5298 65.9552 32.4496 65.8077C32.3693 65.6603 32.2361 65.5487 32.0768 65.4956C31.9931 65.4719 31.9054 65.4653 31.8191 65.4763C31.7327 65.4873 31.6495 65.5157 31.5744 65.5597C31.4993 65.6038 31.4339 65.6626 31.3822 65.7325C31.3304 65.8025 31.2933 65.8822 31.2732 65.9669L31.1497 66.5019C31.1401 66.544 31.1223 66.5839 31.0972 66.6191C31.0722 66.6544 31.0404 66.6843 31.0037 66.7072C30.967 66.7301 30.9262 66.7456 30.8835 66.7526C30.8409 66.7597 30.7972 66.7583 30.7551 66.7484L30.2524 66.6323C30.0898 66.5904 29.9174 66.6117 29.7699 66.6919C29.6224 66.7722 29.5108 66.9054 29.4577 67.0647C29.434 67.1484 29.4274 67.2361 29.4384 67.3224C29.4494 67.4088 29.4778 67.492 29.5219 67.5671C29.5659 67.6422 29.6247 67.7076 29.6947 67.7593C29.7646 67.8111 29.8444 67.8482 29.929 67.8683L30.464 67.9918C30.5061 68.0014 30.546 68.0192 30.5812 68.0443C30.6165 68.0693 30.6464 68.1011 30.6693 68.1378C30.6922 68.1745 30.7077 68.2153 30.7148 68.258C30.7218 68.3006 30.7204 68.3443 30.7105 68.3864L30.5954 68.8852C30.5534 69.0478 30.5747 69.2203 30.655 69.3677C30.7352 69.5152 30.8684 69.6268 31.0277 69.6799C31.1114 69.7036 31.1991 69.7102 31.2855 69.6992C31.3718 69.6882 31.455 69.6598 31.5301 69.6157C31.6052 69.5717 31.6706 69.5129 31.7223 69.4429C31.7741 69.373 31.8112 69.2932 31.8313 69.2086L31.9539 68.6775C31.9635 68.6354 31.9813 68.5955 32.0064 68.5603C32.0315 68.525 32.0632 68.4951 32.0999 68.4722C32.1366 68.4493 32.1774 68.4338 32.2201 68.4267C32.2627 68.4197 32.3064 68.4211 32.3485 68.431L32.8834 68.5545C32.9684 68.5735 33.0563 68.5751 33.1419 68.5593C33.2274 68.5434 33.3089 68.5104 33.3814 68.4622C33.4539 68.4141 33.5159 68.3517 33.5637 68.2789C33.6114 68.2061 33.644 68.1245 33.6593 68.0388C33.6788 67.8732 33.6366 67.7062 33.5406 67.5698C33.4446 67.4335 33.3017 67.3373 33.1392 67.2998Z" fill="#E8EEFF"/>
<path d="M68.1358 32.9253L67.5727 32.7953C67.5249 32.7845 67.4798 32.7644 67.4399 32.7361C67.4 32.7078 67.3661 32.6719 67.3402 32.6304C67.3142 32.5889 67.2968 32.5427 67.2888 32.4944C67.2809 32.4461 67.2826 32.3967 67.2939 32.3491L67.4241 31.785C67.4705 31.6011 67.4453 31.4064 67.3538 31.2403C67.2622 31.0742 67.111 30.949 66.9308 30.8901C66.8364 30.8633 66.7376 30.8559 66.6403 30.8682C66.543 30.8805 66.4492 30.9123 66.3645 30.9618C66.2797 31.0112 66.2059 31.0772 66.1473 31.1559C66.0887 31.2345 66.0466 31.3242 66.0234 31.4195L65.884 32.0236C65.8732 32.0714 65.8531 32.1165 65.8248 32.1564C65.7965 32.1963 65.7606 32.2302 65.7191 32.2561C65.6776 32.2821 65.6313 32.2995 65.5831 32.3074C65.5348 32.3154 65.4854 32.3137 65.4378 32.3024L64.8736 32.1722C64.6897 32.1258 64.4951 32.151 64.329 32.2425C64.1629 32.3341 64.0377 32.4852 63.9787 32.6655C63.9519 32.7601 63.9445 32.8592 63.957 32.9567C63.9694 33.0542 64.0015 33.1483 64.0512 33.2331C64.1009 33.3179 64.1673 33.3918 64.2464 33.4503C64.3254 33.5088 64.4155 33.5507 64.5111 33.5735L65.1152 33.713C65.163 33.7237 65.2081 33.7439 65.248 33.7722C65.2879 33.8005 65.3218 33.8364 65.3477 33.8779C65.3737 33.9194 65.3911 33.9656 65.399 34.0139C65.407 34.0622 65.4053 34.1115 65.394 34.1591L65.2638 34.7233C65.2163 34.9077 65.2407 35.1032 65.3322 35.2701C65.4237 35.4371 65.5753 35.5629 65.7562 35.6221C65.8508 35.6489 65.9499 35.6564 66.0474 35.6439C66.1449 35.6314 66.239 35.5994 66.3238 35.5497C66.4086 35.4999 66.4825 35.4335 66.541 35.3545C66.5995 35.2755 66.6414 35.1854 66.6642 35.0897L66.8037 34.4856C66.8144 34.4379 66.8346 34.3928 66.8629 34.3529C66.8912 34.313 66.9271 34.2791 66.9686 34.2531C67.0101 34.2272 67.0563 34.2098 67.1046 34.2018C67.1529 34.1939 67.2022 34.1956 67.2498 34.2068L67.854 34.3463C67.9499 34.3678 68.0492 34.3696 68.1459 34.3516C68.2426 34.3337 68.3347 34.2964 68.4166 34.2419C68.4985 34.1875 68.5685 34.1171 68.6224 34.0348C68.6764 33.9526 68.7132 33.8604 68.7305 33.7636C68.7532 33.5749 68.7048 33.3846 68.5949 33.2297C68.485 33.0747 68.3213 32.9662 68.1358 32.9253Z" fill="#E8EEFF"/>
<path d="M47.748 153.786C50.5095 153.786 52.748 151.547 52.748 148.786C52.748 146.024 50.5095 143.786 47.748 143.786C44.9866 143.786 42.748 146.024 42.748 148.786C42.748 151.547 44.9866 153.786 47.748 153.786Z" fill="white"/>
<path d="M47.748 152.536C49.8191 152.536 51.498 150.857 51.498 148.786C51.498 146.715 49.8191 145.036 47.748 145.036C45.677 145.036 43.998 146.715 43.998 148.786C43.998 150.857 45.677 152.536 47.748 152.536Z" stroke="#E8EEFF" stroke-width="2.5"/>
<path d="M214.248 73.4106C214.869 73.4106 215.373 72.907 215.373 72.2856C215.373 71.6643 214.869 71.1606 214.248 71.1606C213.627 71.1606 213.123 71.6643 213.123 72.2856C213.123 72.907 213.627 73.4106 214.248 73.4106Z" stroke="#E8EEFF" stroke-width="0.75"/>
<path d="M206.248 92.4106C206.869 92.4106 207.373 91.907 207.373 91.2856C207.373 90.6643 206.869 90.1606 206.248 90.1606C205.627 90.1606 205.123 90.6643 205.123 91.2856C205.123 91.907 205.627 92.4106 206.248 92.4106Z" stroke="#D1DCFC" stroke-width="0.75"/>
<path d="M114.248 55.7856C117.286 55.7856 119.748 53.3232 119.748 50.2856C119.748 47.2481 117.286 44.7856 114.248 44.7856C111.21 44.7856 108.748 47.2481 108.748 50.2856C108.748 53.3232 111.21 55.7856 114.248 55.7856Z" fill="white"/>
<path d="M114.248 54.7856C116.733 54.7856 118.748 52.7709 118.748 50.2856C118.748 47.8004 116.733 45.7856 114.248 45.7856C111.763 45.7856 109.748 47.8004 109.748 50.2856C109.748 52.7709 111.763 54.7856 114.248 54.7856Z" stroke="#F98585" stroke-width="2"/>
<path d="M294.248 118.786C297.286 118.786 299.748 116.323 299.748 113.286C299.748 110.248 297.286 107.786 294.248 107.786C291.21 107.786 288.748 110.248 288.748 113.286C288.748 116.323 291.21 118.786 294.248 118.786Z" fill="white"/>
<path d="M294.248 117.786C296.733 117.786 298.748 115.771 298.748 113.286C298.748 110.8 296.733 108.786 294.248 108.786C291.763 108.786 289.748 110.8 289.748 113.286C289.748 115.771 291.763 117.786 294.248 117.786Z" stroke="#229FF2" stroke-width="2"/>
<path d="M251.248 182.036C252.767 182.036 253.998 180.804 253.998 179.286C253.998 177.767 252.767 176.536 251.248 176.536C249.729 176.536 248.498 177.767 248.498 179.286C248.498 180.804 249.729 182.036 251.248 182.036Z" stroke="#FEEB72" stroke-width="1.5"/>
<path d="M201.248 53.0356C202.767 53.0356 203.998 51.8044 203.998 50.2856C203.998 48.7669 202.767 47.5356 201.248 47.5356C199.729 47.5356 198.498 48.7669 198.498 50.2856C198.498 51.8044 199.729 53.0356 201.248 53.0356Z" stroke="#FEEB72" stroke-width="1.5"/>
<path d="M291.118 154.947L296.507 147.813L300.009 156.038L291.118 154.947Z" stroke="#F98585" stroke-width="2" stroke-miterlimit="10" stroke-linecap="round"/>
<path d="M247.505 97.7586L252.989 93.1673L254.24 100.209L247.505 97.7586Z" stroke="#2EE2B1" stroke-width="1.75" stroke-miterlimit="10" stroke-linecap="round"/>
<path d="M235.555 93.6436L235.849 90.3366L238.571 92.2376L235.555 93.6436Z" stroke="#E8EDFC" stroke-width="0.75" stroke-miterlimit="10" stroke-linecap="round"/>
<path d="M152.497 229.001C198.061 229.001 234.997 192.064 234.997 146.501C234.997 100.937 198.061 64.0007 152.497 64.0007C106.934 64.0007 69.9971 100.937 69.9971 146.501C69.9971 192.064 106.934 229.001 152.497 229.001Z" fill="#F5F6FA"/>
<path d="M153.5 229C199.063 229 236 192.063 236 146.5C236 100.937 199.063 64 153.5 64C107.937 64 71 100.937 71 146.5C71 192.063 107.937 229 153.5 229Z" fill="#F5F6FA"/>
<path fill-rule="evenodd" clip-rule="evenodd" d="M125.646 183.261C123.048 183.261 120.45 182.313 118.472 180.427C114.504 176.646 114.504 170.533 118.472 166.752L174.972 112.9C178.939 109.118 185.362 109.118 189.32 112.9C193.287 116.672 193.287 122.794 189.32 126.576L132.82 180.427C130.841 182.313 128.244 183.261 125.646 183.261Z" fill="url(#paint0_linear)"/>
<path fill-rule="evenodd" clip-rule="evenodd" d="M182.149 183.261C179.552 183.261 176.954 182.313 174.975 180.427L118.476 126.576C114.508 122.794 114.508 116.672 118.476 112.9C122.433 109.118 128.856 109.118 132.824 112.9L189.324 166.752C193.291 170.533 193.291 176.646 189.324 180.427C187.345 182.313 184.747 183.261 182.149 183.261Z" fill="url(#paint1_linear)"/>
<defs>
<linearGradient id="paint0_linear" x1="117.57" y1="124.776" x2="168.466" y2="181.238" gradientUnits="userSpaceOnUse">
<stop stop-color="#FBD072"/>
<stop offset="1" stop-color="#D6A763"/>
</linearGradient>
<linearGradient id="paint1_linear" x1="117.574" y1="124.776" x2="168.47" y2="181.238" gradientUnits="userSpaceOnUse">
<stop stop-color="#FBD072"/>
<stop offset="1" stop-color="#D6A763"/>
</linearGradient>
</defs>
</svg>
