<svg width="178" height="146" viewBox="0 0 178 146" fill="none" xmlns="http://www.w3.org/2000/svg">
<g filter="url(#filter0_d)">
<path d="M32.99 78.314C32.4657 75.3306 32.1954 72.3081 32.182 69.279C32.182 62.0664 33.6026 54.9243 36.3628 48.2607C39.123 41.5971 43.1686 35.5424 48.2687 30.4422C53.3688 25.3421 59.4236 21.2965 66.0872 18.5363C72.7508 15.7762 79.8928 14.3555 87.1055 14.3555C94.3182 14.3555 101.46 15.7762 108.124 18.5363C114.787 21.2965 120.842 25.3421 125.942 30.4422C131.042 35.5424 135.088 41.5971 137.848 48.2607C140.608 54.9243 142.029 62.0664 142.029 69.279C142.003 72.3075 141.733 75.3289 141.221 78.314H32.99ZM126.876 119.439C126.624 121.817 125.538 123.155 123.567 123.53C122.892 123.641 122.208 123.685 121.525 123.659C120.917 123.659 120.265 123.659 119.58 123.633C119.18 123.607 118.72 123.607 118.32 123.607C118.391 123.144 118.502 122.688 118.65 122.243C119.988 121.435 121.3 120.601 122.56 119.716C123.96 119.17 125.431 118.83 126.929 118.708C126.937 118.952 126.92 119.197 126.877 119.438L126.876 119.439ZM87.09 124.188C74.1714 124.188 61.6692 119.618 51.795 111.288H122.411C112.531 119.626 100.018 124.196 87.09 124.188ZM108.496 129.714C107.514 131.608 106.176 132.514 104.431 132.514H104.006C103.047 132.297 102.11 131.992 101.206 131.603C100.553 131.351 99.771 131.073 98.989 130.821C99.241 130.394 99.489 129.987 99.719 129.684C101.329 129.355 102.921 128.943 104.489 128.45C105.933 128.489 107.37 128.667 108.78 128.98C108.68 129.206 108.606 129.458 108.502 129.71L108.496 129.714ZM87.726 133.302C86.8511 134.278 85.643 134.891 84.339 135.021C83.7192 135.013 83.1118 134.846 82.575 134.536C81.7279 134.015 80.9252 133.425 80.175 132.772C79.619 132.32 78.986 131.809 78.327 131.305C78.734 131.005 79.109 130.678 79.439 130.471C81.029 130.678 82.619 130.771 84.26 130.852C85.6357 131.366 86.9635 131.999 88.228 132.746C88.0709 132.94 87.904 133.125 87.728 133.302H87.726ZM66.897 130.045C66.0896 130.49 65.1931 130.748 64.273 130.801C63.2748 130.706 62.3428 130.259 61.643 129.541C60.8018 128.507 60.0437 127.407 59.376 126.253C59.176 125.898 58.924 125.497 58.665 125.115C59.15 124.94 59.602 124.74 60.003 124.637C61.444 125.337 62.911 126.027 64.398 126.608C65.5746 127.49 66.6288 128.524 67.533 129.684C67.33 129.816 67.1186 129.935 66.9 130.039L66.897 130.045ZM48.236 120.273C47.958 120.299 47.68 120.299 47.402 120.299C46.5916 120.352 45.7835 120.166 45.0788 119.762C44.374 119.359 43.804 118.756 43.44 118.03C43.0866 117.106 42.8247 116.149 42.658 115.173C42.503 114.473 42.303 113.661 42.102 112.879C42.5563 112.853 43.0117 112.853 43.466 112.879C44.604 114.016 45.812 115.102 47.027 116.136C47.8309 117.381 48.4984 118.71 49.018 120.098C48.74 120.15 48.488 120.221 48.236 120.273ZM28.492 44.764C28.3874 44.568 28.2968 44.3648 28.221 44.156C27.336 41.81 27.613 40.22 29.178 38.979C29.9044 38.4414 30.6814 37.9759 31.498 37.589C31.879 37.389 32.254 37.189 32.661 36.989L33.088 36.756C33.321 36.633 33.573 36.478 33.825 36.356C33.948 36.856 34.077 37.313 34.148 37.72C33.321 39.084 32.558 40.473 31.854 41.908C30.8518 42.9912 29.7234 43.9504 28.493 44.765L28.492 44.764ZM42.206 21.788C43.1842 21.4614 44.2014 21.2657 45.231 21.206C45.89 21.106 46.621 21.006 47.351 20.876C47.3505 21.3172 47.3171 21.7578 47.251 22.194C46.01 23.254 44.776 24.34 43.612 25.494C42.3465 26.1915 40.9978 26.7257 39.598 27.084C39.398 24.99 39.598 22.87 42.198 21.784L42.206 21.788ZM56.055 13.304C56.837 10.926 58.055 9.81402 60.094 9.76902C61.0534 9.83911 62.0062 9.98186 62.944 10.196C63.629 10.325 64.437 10.474 65.219 10.603C65.0715 11.0098 64.8944 11.4052 64.689 11.786C63.202 12.368 61.761 13.027 60.32 13.706C58.8605 13.9344 57.3812 14.0102 55.906 13.932C55.9432 13.7203 55.993 13.5109 56.055 13.305V13.304ZM75.956 6.23802C76.3071 5.5934 76.8202 5.05145 77.4447 4.66565C78.0691 4.27985 78.7834 4.06352 79.517 4.03802C79.9694 4.05128 80.4185 4.11842 80.855 4.23802C81.8287 4.58088 82.754 5.04808 83.608 5.62802C84.164 5.95802 84.817 6.32802 85.476 6.68802C85.1985 7.02526 84.903 7.34739 84.591 7.65302C82.975 7.72402 81.334 7.82702 79.744 8.00202C78.3121 7.78574 76.9136 7.38821 75.582 6.81902C75.6963 6.61832 75.8215 6.42403 75.957 6.23702L75.956 6.23802ZM97.014 6.01102C98.908 4.71802 100.627 4.59602 102.288 5.71102C103.07 6.34096 103.775 7.0613 104.388 7.85702C104.815 8.38702 105.319 8.96902 105.849 9.52402C105.49 9.74445 105.118 9.94476 104.737 10.124C103.147 9.64602 101.531 9.22402 99.89 8.89002C98.6577 8.21497 97.5062 7.40173 96.458 6.46602C96.658 6.31102 96.813 6.16602 97.014 6.01402V6.01102ZM117.014 12.703C119.489 12.044 121.002 12.477 122.114 14.067C122.611 14.929 123.033 15.8324 123.374 16.767C123.626 17.42 123.956 18.157 124.285 18.887C123.844 18.9809 123.397 19.0477 122.947 19.087C121.661 18.176 120.323 17.323 118.979 16.487C117.989 15.3894 117.11 14.1966 116.355 12.926C116.571 12.8392 116.791 12.7637 117.014 12.7V12.703ZM138.142 28.5C138.39 29.4909 138.51 30.5096 138.497 31.531C138.523 32.184 138.575 32.921 138.626 33.651C138.115 33.573 137.663 33.522 137.262 33.425C136.351 32.139 135.414 30.872 134.405 29.663C133.766 28.3337 133.316 26.9218 133.067 25.468C135.09 25.423 137.281 25.72 138.141 28.499L138.142 28.5ZM25.945 61.375C25.3113 62.7027 24.5586 63.9702 23.696 65.162C22.306 63.653 21.149 61.827 22.41 59.453C22.9754 58.7137 23.5909 58.0141 24.252 57.359C24.808 56.777 25.415 56.144 25.997 55.491C26.2598 55.824 26.494 56.1786 26.697 56.551C26.367 58.141 26.141 59.757 25.941 61.372L25.945 61.375ZM26.041 85.001H24.303C23.6579 84.5536 23.1633 83.9215 22.8842 83.1878C22.605 82.4541 22.5544 81.653 22.739 80.89C23.0012 79.88 23.3992 78.9101 23.922 78.007C24.222 77.38 24.53 76.721 24.833 76.042C25.24 76.342 25.615 76.617 25.893 76.869C26.093 78.536 26.326 80.204 26.675 81.82C26.5824 82.8997 26.3722 83.966 26.048 85L26.041 85.001ZM144.808 42.767C146.747 43.426 148.641 44.486 148.666 47.214C148.542 48.1238 148.332 49.0197 148.039 49.89C147.939 50.29 147.806 50.724 147.658 51.254C147.58 51.603 147.509 51.984 147.432 52.34C146.999 52.133 146.572 51.907 146.243 51.707C145.791 50.169 145.261 48.702 144.705 47.241C144.6 45.7505 144.633 44.2534 144.805 42.769L144.808 42.767ZM148.89 83.797C149.161 84.1838 149.408 84.5876 149.627 85.006H147.785C148.134 84.606 148.515 84.198 148.89 83.797ZM148.718 66.953C149.078 65.5741 149.603 64.2437 150.282 62.991C150.463 63.12 150.637 63.243 150.838 63.398C152.706 64.962 153.21 66.552 152.454 68.42C152.077 69.234 151.611 70.0034 151.064 70.714C150.838 71.069 150.586 71.451 150.364 71.8C150.112 72.155 149.886 72.511 149.664 72.86C149.321 72.546 148.999 72.2092 148.701 71.852C148.753 70.992 148.856 70.133 148.856 69.28C148.856 68.498 148.756 67.735 148.727 66.953H148.718ZM171.477 111.29L157.605 98.408L170.479 85.008H150.741C150.443 84.326 150.079 83.6746 149.655 83.063C150.563 82.2923 151.361 81.4006 152.027 80.413C153.74 77.485 152.027 75.313 150.385 73.627C150.663 73.22 150.915 72.819 151.219 72.386C151.445 72.011 151.697 71.656 151.919 71.3C152.496 70.5166 152.996 69.6794 153.412 68.8C154.343 66.557 153.712 64.463 151.492 62.641C151.24 62.415 150.992 62.241 150.736 62.041C151.288 60.9875 151.751 59.8892 152.119 58.758C152.752 56.108 151.24 54.518 149.519 53.478C149.138 53.252 148.763 53.051 148.356 52.851C148.485 52.392 148.563 51.914 148.686 51.436C148.815 51.009 148.912 50.576 149.041 50.202C149.357 49.2402 149.584 48.2514 149.72 47.248C149.668 43.739 147.12 42.448 144.899 41.741C145.114 40.5662 145.225 39.3745 145.229 38.18C144.699 34.852 141.997 34.166 139.651 33.811C139.599 33.029 139.551 32.221 139.522 31.517C139.543 30.3836 139.409 29.2527 139.122 28.156C138.088 24.856 135.309 24.472 133.286 24.472H132.859C132.716 23.2912 132.41 22.1361 131.948 21.04C130.461 17.957 127.631 18.24 125.31 18.694C124.955 17.906 124.625 17.094 124.328 16.394C123.962 15.388 123.506 14.4173 122.964 13.494C122.528 12.8322 121.931 12.2925 121.229 11.926C120.526 11.5596 119.742 11.3785 118.95 11.4C118.205 11.4066 117.465 11.5152 116.75 11.723C116.42 11.801 116.142 11.956 115.813 12.053C115.266 10.9957 114.617 9.99403 113.876 9.06202C112.008 7.09702 109.791 7.60102 108.046 8.36202C107.594 8.56202 107.212 8.78902 106.786 9.01502C106.23 8.41502 105.674 7.78102 105.17 7.19902C104.508 6.32095 103.735 5.53239 102.87 4.85302C100.854 3.54102 98.734 3.61902 96.433 5.18302C96.1696 5.37785 95.9172 5.58717 95.677 5.81002C94.8248 4.98709 93.886 4.25885 92.877 3.63802C90.453 2.53302 88.54 3.51502 87.125 4.82702C86.7834 5.17019 86.4618 5.53279 86.162 5.91302C85.483 5.53202 84.798 5.13102 84.146 4.75002C83.2029 4.10526 82.1738 3.59628 81.089 3.23802C79.9652 2.88098 78.7522 2.92679 77.6585 3.36757C76.5649 3.80834 75.6591 4.61651 75.097 5.65302C74.923 5.93102 74.774 6.18302 74.597 6.43502C73.5346 5.91626 72.4035 5.55191 71.238 5.35302C70.1853 5.19668 69.1108 5.40747 68.1952 5.94996C67.2795 6.49246 66.5786 7.33359 66.21 8.33202C65.984 8.78402 65.835 9.21702 65.654 9.61802C64.801 9.49502 63.941 9.34002 63.159 9.19102C62.155 8.95101 61.1322 8.79745 60.102 8.73202H59.953C56.418 8.86102 55.429 11.964 55.08 12.978C54.98 13.308 54.925 13.605 54.854 13.909C53.6855 13.8252 52.5121 13.8339 51.345 13.935C48.669 14.413 47.881 16.559 47.583 18.427C47.4949 18.894 47.443 19.3671 47.428 19.842C46.646 19.971 45.864 20.094 45.108 20.172C43.9683 20.2216 42.8437 20.4515 41.776 20.853C38.519 22.217 38.37 25.073 38.596 27.394C37.4525 27.6271 36.3467 28.0171 35.31 28.553C32.41 30.317 32.886 33.071 33.52 35.346C33.22 35.521 32.912 35.669 32.609 35.846L32.157 36.072C31.776 36.272 31.401 36.499 31.019 36.68C30.1372 37.1053 29.292 37.6026 28.492 38.167C25.692 40.416 26.876 43.518 27.258 44.533C27.358 44.833 27.51 45.082 27.639 45.386C26.6734 46.036 25.7615 46.7623 24.912 47.558C23.044 49.581 23.749 51.753 24.686 53.439C24.938 53.846 25.186 54.202 25.442 54.577C24.783 55.314 24.13 56.018 23.522 56.626C22.7951 57.3426 22.1191 58.1092 21.499 58.92C19.909 62.029 21.525 64.349 23.115 66.042C22.4153 66.9663 21.7763 67.935 21.202 68.942C20.116 72.122 22.133 74.016 23.975 75.431C23.675 76.131 23.322 76.866 22.993 77.551C22.4104 78.5391 21.9853 79.612 21.733 80.731C21.5528 81.4749 21.5551 82.2513 21.7397 82.994C21.9243 83.7368 22.2856 84.424 22.793 84.997H6.982L19.863 98.397L6 111.289H35.918C36.9357 112.289 38.3044 112.85 39.731 112.853C40.1679 112.879 40.606 112.879 41.043 112.853C41.295 113.738 41.47 114.617 41.651 115.399C41.824 116.466 42.119 117.509 42.53 118.508C43.668 120.654 45.716 121.565 48.34 121.287C48.715 121.235 49.04 121.158 49.4 121.08C49.7604 122.182 50.2259 123.247 50.79 124.26C51.4246 125.106 52.3134 125.727 53.3263 126.032C54.3391 126.336 55.4229 126.309 56.419 125.953C56.846 125.804 57.279 125.623 57.679 125.475C57.957 125.927 58.261 126.386 58.487 126.761C59.1817 127.997 59.9934 129.164 60.911 130.245C61.789 131.164 62.9783 131.721 64.246 131.809C65.3296 131.778 66.391 131.495 67.346 130.982C67.646 130.827 67.902 130.652 68.206 130.497C68.9299 131.416 69.7417 132.263 70.63 133.024C71.5213 133.713 72.6336 134.054 73.758 133.981C74.7475 133.792 75.6804 133.378 76.485 132.772C76.8466 132.525 77.192 132.255 77.519 131.964C78.23 132.52 78.909 133.076 79.542 133.58C80.3433 134.284 81.2038 134.918 82.114 135.474C82.7978 135.843 83.5601 136.043 84.337 136.056C85.905 135.932 87.3674 135.217 88.428 134.056C88.6754 133.808 88.9091 133.547 89.128 133.274C90.1097 133.926 91.1506 134.484 92.237 134.941C94.809 135.841 96.503 134.282 97.692 132.769C97.963 132.414 98.17 132.069 98.422 131.709C99.256 131.987 100.109 132.291 100.846 132.569C101.831 133.005 102.863 133.327 103.922 133.526C106.346 133.7 108.168 132.595 109.429 130.172C109.578 129.842 109.681 129.513 109.804 129.183C110.948 129.481 112.116 129.675 113.294 129.765C115.944 129.565 117.152 127.794 117.786 125.978C117.909 125.5 117.986 125.067 118.086 124.614C118.564 124.64 119.068 124.64 119.547 124.666C120.284 124.692 120.937 124.692 121.547 124.692C122.299 124.709 123.051 124.666 123.796 124.563C126.239 124.085 127.629 122.391 127.932 119.563C127.958 119.233 127.958 118.904 127.984 118.581C129.164 118.476 130.331 118.255 131.468 117.922C134.021 117.011 134.551 114.891 134.473 112.9C134.447 112.441 134.395 112.04 134.373 111.607C134.651 111.507 134.955 111.381 135.233 111.284L171.477 111.29Z" fill="#DDAF66"/>
</g>
<path d="M22.4971 89.0511H27.7411C28.2478 89.0511 28.7481 89.1144 29.2421 89.2411C29.7361 89.3551 30.1731 89.5514 30.5531 89.8301C30.9458 90.0961 31.2624 90.4444 31.5031 90.8751C31.7438 91.3057 31.8641 91.8251 31.8641 92.4331C31.8641 93.1931 31.6488 93.8201 31.2181 94.3141C30.7874 94.8081 30.2238 95.1627 29.5271 95.3781V95.4161C29.9451 95.4667 30.3314 95.5871 30.6861 95.7771C31.0534 95.9544 31.3638 96.1887 31.6171 96.4801C31.8704 96.7587 32.0668 97.0881 32.2061 97.4681C32.3581 97.8354 32.4341 98.2344 32.4341 98.6651C32.4341 99.3997 32.2884 100.014 31.9971 100.508C31.7058 100.989 31.3194 101.382 30.8381 101.686C30.3694 101.977 29.8248 102.186 29.2041 102.313C28.5961 102.44 27.9754 102.503 27.3421 102.503H22.4971V89.0511ZM24.8911 94.5231H27.0761C27.8741 94.5231 28.4694 94.3711 28.8621 94.0671C29.2674 93.7504 29.4701 93.3387 29.4701 92.8321C29.4701 92.2494 29.2611 91.8187 28.8431 91.5401C28.4378 91.2487 27.7791 91.1031 26.8671 91.1031H24.8911V94.5231ZM24.8911 100.451H27.0951C27.3991 100.451 27.7221 100.432 28.0641 100.394C28.4188 100.356 28.7418 100.267 29.0331 100.128C29.3244 99.9887 29.5651 99.7924 29.7551 99.5391C29.9451 99.2731 30.0401 98.9184 30.0401 98.4751C30.0401 97.7657 29.8058 97.2717 29.3371 96.9931C28.8811 96.7144 28.1654 96.5751 27.1901 96.5751H24.8911V100.451ZM39.1684 89.0511H41.2394L47.0344 102.503H44.2984L43.0444 99.4251H37.2114L35.9954 102.503H33.3164L39.1684 89.0511ZM42.2084 97.3731L40.1374 91.9011L38.0284 97.3731H42.2084ZM48.5293 89.0511H53.2033C53.8493 89.0511 54.47 89.1144 55.0653 89.2411C55.6733 89.3551 56.2117 89.5577 56.6803 89.8491C57.149 90.1404 57.5227 90.5331 57.8013 91.0271C58.08 91.5211 58.2193 92.1481 58.2193 92.9081C58.2193 93.8834 57.947 94.7004 57.4023 95.3591C56.8703 96.0177 56.104 96.4167 55.1033 96.5561L58.6753 102.503H55.7873L52.6713 96.8031H50.9233V102.503H48.5293V89.0511ZM52.7853 94.7511C53.1273 94.7511 53.4693 94.7384 53.8113 94.7131C54.1533 94.6751 54.4637 94.5991 54.7423 94.4851C55.0337 94.3584 55.268 94.1747 55.4453 93.9341C55.6227 93.6807 55.7113 93.3324 55.7113 92.8891C55.7113 92.4964 55.629 92.1797 55.4643 91.9391C55.2997 91.6984 55.0843 91.5211 54.8183 91.4071C54.5523 91.2804 54.2547 91.1981 53.9253 91.1601C53.6087 91.1221 53.2983 91.1031 52.9943 91.1031H50.9233V94.7511H52.7853ZM60.4971 89.0511H65.7411C66.2478 89.0511 66.7481 89.1144 67.2421 89.2411C67.7361 89.3551 68.1731 89.5514 68.5531 89.8301C68.9458 90.0961 69.2624 90.4444 69.5031 90.8751C69.7438 91.3057 69.8641 91.8251 69.8641 92.4331C69.8641 93.1931 69.6488 93.8201 69.2181 94.3141C68.7874 94.8081 68.2238 95.1627 67.5271 95.3781V95.4161C67.9451 95.4667 68.3314 95.5871 68.6861 95.7771C69.0534 95.9544 69.3638 96.1887 69.6171 96.4801C69.8704 96.7587 70.0668 97.0881 70.2061 97.4681C70.3581 97.8354 70.4341 98.2344 70.4341 98.6651C70.4341 99.3997 70.2884 100.014 69.9971 100.508C69.7058 100.989 69.3194 101.382 68.8381 101.686C68.3694 101.977 67.8248 102.186 67.2041 102.313C66.5961 102.44 65.9754 102.503 65.3421 102.503H60.4971V89.0511ZM62.8911 94.5231H65.0761C65.8741 94.5231 66.4694 94.3711 66.8621 94.0671C67.2674 93.7504 67.4701 93.3387 67.4701 92.8321C67.4701 92.2494 67.2611 91.8187 66.8431 91.5401C66.4378 91.2487 65.7791 91.1031 64.8671 91.1031H62.8911V94.5231ZM62.8911 100.451H65.0951C65.3991 100.451 65.7221 100.432 66.0641 100.394C66.4188 100.356 66.7418 100.267 67.0331 100.128C67.3244 99.9887 67.5651 99.7924 67.7551 99.5391C67.9451 99.2731 68.0401 98.9184 68.0401 98.4751C68.0401 97.7657 67.8058 97.2717 67.3371 96.9931C66.8811 96.7144 66.1654 96.5751 65.1901 96.5751H62.8911V100.451ZM72.8174 89.0511H81.7284V91.2171H75.2114V94.5231H81.3864V96.6891H75.2114V100.337H82.0704V102.503H72.8174V89.0511ZM84.4326 89.0511H89.1066C89.7526 89.0511 90.3733 89.1144 90.9686 89.2411C91.5766 89.3551 92.115 89.5577 92.5836 89.8491C93.0523 90.1404 93.426 90.5331 93.7046 91.0271C93.9833 91.5211 94.1226 92.1481 94.1226 92.9081C94.1226 93.8834 93.8503 94.7004 93.3056 95.3591C92.7736 96.0177 92.0073 96.4167 91.0066 96.5561L94.5786 102.503H91.6906L88.5746 96.8031H86.8266V102.503H84.4326V89.0511ZM88.6886 94.7511C89.0306 94.7511 89.3726 94.7384 89.7146 94.7131C90.0566 94.6751 90.367 94.5991 90.6456 94.4851C90.937 94.3584 91.1713 94.1747 91.3486 93.9341C91.526 93.6807 91.6146 93.3324 91.6146 92.8891C91.6146 92.4964 91.5323 92.1797 91.3676 91.9391C91.203 91.6984 90.9876 91.5211 90.7216 91.4071C90.4556 91.2804 90.158 91.1981 89.8286 91.1601C89.512 91.1221 89.2016 91.1031 88.8976 91.1031H86.8266V94.7511H88.6886ZM102.022 89.0511H104.416V94.4091H110.705V89.0511H113.099V102.503H110.705V96.5751H104.416V102.503H102.022V89.0511ZM115.383 95.8341C115.383 94.7574 115.561 93.7821 115.915 92.9081C116.27 92.0214 116.758 91.2677 117.378 90.6471C118.012 90.0264 118.759 89.5514 119.62 89.2221C120.494 88.8801 121.451 88.7091 122.489 88.7091C123.541 88.6964 124.503 88.8547 125.377 89.1841C126.251 89.5007 127.005 89.9694 127.638 90.5901C128.272 91.2107 128.766 91.9581 129.12 92.8321C129.475 93.7061 129.652 94.6814 129.652 95.7581C129.652 96.8094 129.475 97.7657 129.12 98.6271C128.766 99.4884 128.272 100.229 127.638 100.85C127.005 101.471 126.251 101.958 125.377 102.313C124.503 102.655 123.541 102.832 122.489 102.845C121.451 102.845 120.494 102.68 119.62 102.351C118.759 102.009 118.012 101.534 117.378 100.926C116.758 100.305 116.27 99.5644 115.915 98.7031C115.561 97.8417 115.383 96.8854 115.383 95.8341ZM117.891 95.6821C117.891 96.4041 117.999 97.0691 118.214 97.6771C118.442 98.2851 118.759 98.8107 119.164 99.2541C119.57 99.6974 120.051 100.046 120.608 100.299C121.178 100.552 121.812 100.679 122.508 100.679C123.205 100.679 123.838 100.552 124.408 100.299C124.978 100.046 125.466 99.6974 125.871 99.2541C126.277 98.8107 126.587 98.2851 126.802 97.6771C127.03 97.0691 127.144 96.4041 127.144 95.6821C127.144 95.0107 127.03 94.3837 126.802 93.8011C126.587 93.2184 126.277 92.7117 125.871 92.2811C125.466 91.8377 124.978 91.4957 124.408 91.2551C123.838 91.0017 123.205 90.8751 122.508 90.8751C121.812 90.8751 121.178 91.0017 120.608 91.2551C120.051 91.4957 119.57 91.8377 119.164 92.2811C118.759 92.7117 118.442 93.2184 118.214 93.8011C117.999 94.3837 117.891 95.0107 117.891 95.6821ZM131.99 89.0511H135.638L139.229 98.4751L142.858 89.0511H146.468V102.503H144.188V91.3311H144.15L140.065 102.503H138.393L134.308 91.3311H134.27V102.503H131.99V89.0511ZM149.522 89.0511H158.433V91.2171H151.916V94.5231H158.091V96.6891H151.916V100.337H158.775V102.503H149.522V89.0511Z" fill="white"/>
<path d="M117.725 41.4221C121.997 45.8651 121.881 47.7151 121.938 49.7531C122.138 56.7941 112.552 51.7271 110.038 49.7531C94.4341 37.4761 93.2261 38.0031 87.597 40.3101L87.3971 40.4101L87.1971 40.3101C81.5731 38.0041 80.3601 37.4771 64.7561 49.7581C62.2481 51.7321 52.6561 56.7991 52.8561 49.7581C52.916 47.7151 52.809 45.8651 57.075 41.4221C57.075 41.4221 44.824 41.9771 48.79 57.5401C50.707 65.0591 56.1971 78.6401 87.3971 60.2101C118.597 78.6451 124.083 65.0591 125.997 57.5401C129.976 41.9741 117.725 41.4221 117.725 41.4221Z" fill="#DDAF66"/>
<defs>
<filter id="filter0_d" x="0" y="0" width="177.477" height="145.056" filterUnits="userSpaceOnUse" color-interpolation-filters="sRGB">
<feFlood flood-opacity="0" result="BackgroundImageFix"/>
<feColorMatrix in="SourceAlpha" type="matrix" values="0 0 0 0 0 0 0 0 0 0 0 0 0 0 0 0 0 0 127 0"/>
<feOffset dy="3"/>
<feGaussianBlur stdDeviation="3"/>
<feColorMatrix type="matrix" values="0 0 0 0 0 0 0 0 0 0 0 0 0 0 0 0 0 0 0.412 0"/>
<feBlend mode="normal" in2="BackgroundImageFix" result="effect1_dropShadow"/>
<feBlend mode="normal" in="SourceGraphic" in2="effect1_dropShadow" result="shape"/>
</filter>
</defs>
</svg>
