<svg width="37" height="22" viewBox="0 0 37 22" fill="none" xmlns="http://www.w3.org/2000/svg">
<path d="M36.9998 11C36.9998 17.021 32.0665 21.9421 25.8998 21.9421C19.7919 21.9421 14.7998 17.021 14.7998 11C14.7998 4.97894 19.7331 0.0578918 25.8411 0.0578918C32.0665 0.0578918 36.9998 4.97894 36.9998 11Z" fill="#FFB600"/>
<path d="M25.8998 0.0578918C32.0077 0.0578918 36.9998 4.97894 36.9998 11C36.9998 17.021 32.0665 21.9421 25.8998 21.9421C19.7919 21.9421 14.7998 17.021 14.7998 11" fill="#F7981D"/>
<path d="M25.8999 0.0578918C32.0078 0.0578918 36.9999 4.97894 36.9999 11C36.9999 17.021 32.0666 21.9421 25.8999 21.9421" fill="#FF8500"/>
<path d="M10.9825 0.0578918C4.93333 0.115787 0 4.97894 0 11C0 17.021 4.93333 21.9421 11.1 21.9421C13.9778 21.9421 16.5619 20.8421 18.5587 19.1053C18.9698 18.7579 19.3222 18.3526 19.6746 17.9474H17.3841C17.0905 17.6 16.7968 17.1947 16.5619 16.8474H20.4968C20.7317 16.5 20.9667 16.0947 21.1429 15.6895H15.9159C15.7397 15.3421 15.5635 14.9368 15.446 14.5316H21.554C21.9063 13.4316 22.1413 12.2737 22.1413 11.0579C22.1413 10.2474 22.0238 9.49473 21.9063 8.7421H15.0937C15.1524 8.33684 15.2698 7.98947 15.3873 7.58421H21.4952C21.3778 7.17894 21.2016 6.77368 21.0254 6.42631H15.8571C16.0333 6.02105 16.2683 5.67368 16.5032 5.26842H20.4381C20.2032 4.86316 19.9095 4.45789 19.5571 4.11052H17.3841C17.7365 3.70526 18.0889 3.35789 18.5 3.01052C16.5619 1.21579 13.919 0.173681 11.0413 0.173681C11.0413 0.0578918 11.0413 0.0578918 10.9825 0.0578918Z" fill="#FF5050"/>
<path d="M0 11C0 17.021 4.93333 21.9421 11.1 21.9421C13.9778 21.9421 16.5619 20.8421 18.5587 19.1053C18.9698 18.7579 19.3222 18.3526 19.6746 17.9474H17.3841C17.0905 17.6 16.7968 17.1947 16.5619 16.8474H20.4968C20.7317 16.5 20.9667 16.0947 21.1429 15.6895H15.9159C15.7397 15.3421 15.5635 14.9368 15.446 14.5316H21.554C21.9063 13.4316 22.1413 12.2737 22.1413 11.0579C22.1413 10.2474 22.0238 9.49473 21.9063 8.7421H15.0937C15.1524 8.33683 15.2698 7.98946 15.3873 7.5842H21.4952C21.3778 7.17894 21.2016 6.77368 21.0254 6.42631H15.8571C16.0333 6.02104 16.2683 5.67368 16.5032 5.26841H20.4381C20.2032 4.86315 19.9095 4.45789 19.5571 4.11052H17.3841C17.7365 3.70525 18.0889 3.35789 18.5 3.01052C16.5619 1.21578 13.919 0.173676 11.0413 0.173676H10.9825" fill="#E52836"/>
<path d="M11.0999 21.9421C13.9777 21.9421 16.5618 20.8421 18.5586 19.1053C18.9697 18.7579 19.3221 18.3526 19.6745 17.9474H17.384C17.0904 17.6 16.7967 17.1947 16.5618 16.8474H20.4967C20.7316 16.5 20.9665 16.0947 21.1427 15.6895H15.9158C15.7396 15.3421 15.5634 14.9368 15.4459 14.5316H21.5539C21.9062 13.4316 22.1412 12.2737 22.1412 11.0579C22.1412 10.2474 22.0237 9.49473 21.9062 8.7421H15.0935C15.1523 8.33683 15.2697 7.98946 15.3872 7.5842H21.4951C21.3777 7.17894 21.2015 6.77368 21.0253 6.42631H15.857C16.0332 6.02104 16.2681 5.67368 16.5031 5.26841H20.438C20.2031 4.86315 19.9094 4.45789 19.557 4.11052H17.384C17.7364 3.70525 18.0888 3.35789 18.4999 3.01052C16.5618 1.21578 13.9189 0.173676 11.0412 0.173676H10.9824" fill="#CB2026"/>
<path d="M15.0347 13.7789L15.2109 12.7947C15.1522 12.7947 15.0347 12.8526 14.9173 12.8526C14.5061 12.8526 14.4474 12.621 14.5061 12.5053L14.8585 10.4789H15.5046L15.6807 9.37894H15.0934L15.2109 8.6842H14.0363C14.0363 8.6842 13.3315 12.5053 13.3315 12.9684C13.3315 13.6632 13.7427 13.9526 14.2712 13.9526C14.6236 13.9526 14.9173 13.8368 15.0347 13.7789Z" fill="white"/>
<path d="M15.4458 11.9263C15.4458 13.5474 16.5617 13.9526 17.5014 13.9526C18.3823 13.9526 18.7347 13.7789 18.7347 13.7789L18.9696 12.6789C18.9696 12.6789 18.3236 12.9684 17.7363 12.9684C16.4442 12.9684 16.6791 12.0421 16.6791 12.0421H19.0871C19.0871 12.0421 19.2633 11.2895 19.2633 11C19.2633 10.2474 18.8521 9.32105 17.5601 9.32105C16.3268 9.20526 15.4458 10.4789 15.4458 11.9263ZM17.5014 10.2474C18.1474 10.2474 18.0299 11 18.0299 11.0579H16.7379C16.7379 11 16.8553 10.2474 17.5014 10.2474Z" fill="white"/>
<path d="M24.9601 13.7789L25.1951 12.5053C25.1951 12.5053 24.6078 12.7947 24.1966 12.7947C23.3744 12.7947 23.022 12.1579 23.022 11.4631C23.022 10.0737 23.7268 9.32104 24.549 9.32104C25.1363 9.32104 25.6062 9.66841 25.6062 9.66841L25.7824 8.45262C25.7824 8.45262 25.0776 8.16315 24.4316 8.16315C23.0808 8.16315 21.73 9.32104 21.73 11.521C21.73 12.9684 22.4347 13.9526 23.8443 13.9526C24.3141 13.9526 24.9601 13.7789 24.9601 13.7789Z" fill="white"/>
<path d="M8.57452 9.20526C7.7523 9.20526 7.165 9.43684 7.165 9.43684L6.98881 10.4211C6.98881 10.4211 7.51738 10.1895 8.28087 10.1895C8.69198 10.1895 9.04436 10.2474 9.04436 10.5947C9.04436 10.8263 8.98563 10.8842 8.98563 10.8842C8.98563 10.8842 8.63325 10.8842 8.45706 10.8842C7.45865 10.8842 6.34277 11.2895 6.34277 12.6211C6.34277 13.6632 7.04754 13.8947 7.45865 13.8947C8.28087 13.8947 8.63325 13.3737 8.69198 13.3737L8.63325 13.8368H9.69039L10.1602 10.6526C10.1602 9.26316 8.98563 9.20526 8.57452 9.20526ZM8.80944 11.8105C8.80944 11.9842 8.69198 12.9105 7.98722 12.9105C7.63484 12.9105 7.51738 12.6211 7.51738 12.4474C7.51738 12.1579 7.69357 11.7526 8.57452 11.7526C8.75071 11.8105 8.80944 11.8105 8.80944 11.8105Z" fill="white"/>
<path d="M11.2761 13.8947C11.5697 13.8947 13.038 13.9526 13.038 12.3895C13.038 10.9421 11.6285 11.2316 11.6285 10.6526C11.6285 10.3632 11.8634 10.2474 12.2745 10.2474C12.4507 10.2474 13.0967 10.3053 13.0967 10.3053L13.2729 9.26316C13.2729 9.26316 12.8618 9.14737 12.157 9.14737C11.2761 9.14737 10.3951 9.49474 10.3951 10.6526C10.3951 11.9842 11.8634 11.8684 11.8634 12.3895C11.8634 12.7368 11.4523 12.7947 11.1586 12.7947C10.6301 12.7947 10.1015 12.6211 10.1015 12.6211L9.92529 13.6632C9.98402 13.7789 10.2777 13.8947 11.2761 13.8947Z" fill="white"/>
<path d="M34.7094 8.27893L34.4745 9.84209C34.4745 9.84209 34.0047 9.26314 33.3586 9.26314C32.3015 9.26314 31.3618 10.5368 31.3618 12.0421C31.3618 12.9684 31.8317 13.9526 32.8301 13.9526C33.5348 13.9526 33.9459 13.4895 33.9459 13.4895L33.8872 13.8947H35.0618L35.9428 8.33683L34.7094 8.27893ZM34.1809 11.3474C34.1809 11.9842 33.8872 12.7947 33.2412 12.7947C32.8301 12.7947 32.5951 12.4474 32.5951 11.8684C32.5951 10.9421 33.0063 10.3631 33.5348 10.3631C33.9459 10.3631 34.1809 10.6526 34.1809 11.3474Z" fill="white"/>
<path d="M2.173 13.8368L2.87776 9.6684L2.99522 13.8368H3.81745L5.34443 9.6684L4.6984 13.8368H5.93173L6.87141 8.27893H4.93332L3.75872 11.6947L3.69999 8.27893H1.99681L1.05713 13.8368H2.173Z" fill="white"/>
<path d="M20.3795 13.8368C20.7318 11.9263 20.7906 10.3632 21.6128 10.6526C21.7303 9.89999 21.9064 9.61052 22.0239 9.32104C22.0239 9.32104 21.9652 9.32104 21.789 9.32104C21.2604 9.32104 20.8493 10.0158 20.8493 10.0158L20.9668 9.37894H19.8509L19.0874 13.8947H20.3795V13.8368Z" fill="white"/>
<path d="M27.6619 9.20526C26.8397 9.20526 26.2524 9.43684 26.2524 9.43684L26.0762 10.4211C26.0762 10.4211 26.6048 10.1895 27.3683 10.1895C27.7794 10.1895 28.1318 10.2474 28.1318 10.5947C28.1318 10.8263 28.073 10.8842 28.073 10.8842C28.073 10.8842 27.7207 10.8842 27.5445 10.8842C26.546 10.8842 25.4302 11.2895 25.4302 12.6211C25.4302 13.6632 26.1349 13.8947 26.546 13.8947C27.3683 13.8947 27.7207 13.3737 27.7794 13.3737L27.7207 13.8368H28.7778L29.2476 10.6526C29.3064 9.26316 28.073 9.20526 27.6619 9.20526ZM27.9556 11.8105C27.9556 11.9842 27.8381 12.9105 27.1334 12.9105C26.781 12.9105 26.6635 12.6211 26.6635 12.4474C26.6635 12.1579 26.8397 11.7526 27.7207 11.7526C27.8968 11.8105 27.8968 11.8105 27.9556 11.8105Z" fill="white"/>
<path d="M30.2462 13.8368C30.5985 11.9263 30.6573 10.3632 31.4795 10.6526C31.597 9.89999 31.7731 9.61052 31.8906 9.32104C31.8906 9.32104 31.8319 9.32104 31.6557 9.32104C31.1271 9.32104 30.716 10.0158 30.716 10.0158L30.8335 9.37894H29.7176L28.9541 13.8947H30.2462V13.8368Z" fill="white"/>
<path d="M13.2144 12.9684C13.2144 13.6632 13.6255 13.9526 14.154 13.9526C14.5651 13.9526 14.9175 13.8368 15.035 13.7789L15.2112 12.7947C15.1525 12.7947 15.035 12.8526 14.9175 12.8526C14.5064 12.8526 14.4477 12.621 14.5064 12.5053L14.8588 10.4789H15.5048L15.681 9.37894H15.0937L15.2112 8.6842" fill="#DCE5E5"/>
<path d="M16.0332 11.9263C16.0332 13.5474 16.5618 13.9526 17.5015 13.9526C18.3824 13.9526 18.7348 13.7789 18.7348 13.7789L18.9697 12.6789C18.9697 12.6789 18.3237 12.9684 17.7364 12.9684C16.4443 12.9684 16.6792 12.0421 16.6792 12.0421H19.0872C19.0872 12.0421 19.2634 11.2895 19.2634 11C19.2634 10.2474 18.8523 9.32105 17.5602 9.32105C16.3269 9.20526 16.0332 10.4789 16.0332 11.9263ZM17.5015 10.2474C18.1475 10.2474 18.2649 11 18.2649 11.0579H16.738C16.738 11 16.8554 10.2474 17.5015 10.2474Z" fill="#DCE5E5"/>
<path d="M24.9602 13.7789L25.1952 12.5053C25.1952 12.5053 24.6079 12.7947 24.1967 12.7947C23.3745 12.7947 23.0221 12.1579 23.0221 11.4631C23.0221 10.0737 23.7269 9.32104 24.5491 9.32104C25.1364 9.32104 25.6063 9.66841 25.6063 9.66841L25.7825 8.45262C25.7825 8.45262 25.0777 8.16315 24.4317 8.16315C23.0809 8.16315 22.3174 9.32104 22.3174 11.521C22.3174 12.9684 22.4348 13.9526 23.8444 13.9526C24.3142 13.9526 24.9602 13.7789 24.9602 13.7789Z" fill="#DCE5E5"/>
<path d="M6.98881 10.4789C6.98881 10.4789 7.51738 10.2474 8.28087 10.2474C8.69198 10.2474 9.04436 10.3053 9.04436 10.6526C9.04436 10.8842 8.98563 10.9421 8.98563 10.9421C8.98563 10.9421 8.63325 10.9421 8.45706 10.9421C7.45865 10.9421 6.34277 11.3474 6.34277 12.6789C6.34277 13.721 7.04754 13.9526 7.45865 13.9526C8.28087 13.9526 8.63325 13.4316 8.69198 13.4316L8.63325 13.8947H9.69039L10.1602 10.7105C10.1602 9.37894 8.98563 9.32104 8.51579 9.32104L6.98881 10.4789ZM9.39674 11.8105C9.39674 11.9842 8.69198 12.9105 7.98722 12.9105C7.63484 12.9105 7.51738 12.621 7.51738 12.4474C7.51738 12.1579 7.69357 11.7526 8.57452 11.7526C8.75071 11.8105 9.39674 11.8105 9.39674 11.8105Z" fill="#DCE5E5"/>
<path d="M9.98389 13.7789C9.98389 13.7789 10.3363 13.8947 11.3347 13.8947C11.6283 13.8947 13.0966 13.9526 13.0966 12.3895C13.0966 10.9421 11.6871 11.2316 11.6871 10.6526C11.6871 10.3632 11.922 10.2474 12.3331 10.2474C12.5093 10.2474 13.1553 10.3053 13.1553 10.3053L13.3315 9.26316C13.3315 9.26316 12.9204 9.14737 12.2156 9.14737C11.3347 9.14737 11.041 9.49474 11.041 10.6526C11.041 11.9842 11.922 11.8684 11.922 12.3895C11.922 12.7368 11.5109 12.7947 11.2172 12.7947" fill="#DCE5E5"/>
<path d="M34.4745 9.84209C34.4745 9.84209 34.0046 9.26314 33.3586 9.26314C32.3015 9.26314 31.9491 10.5368 31.9491 12.0421C31.9491 12.9684 31.8316 13.9526 32.83 13.9526C33.5348 13.9526 33.9459 13.4895 33.9459 13.4895L33.8872 13.8947H35.0618L35.9427 8.33682L34.4745 9.84209ZM34.4158 11.3473C34.4158 11.9842 33.8872 12.7947 33.2412 12.7947C32.83 12.7947 32.5951 12.4473 32.5951 11.8684C32.5951 10.9421 33.0062 10.3631 33.5348 10.3631C33.9459 10.3631 34.4158 10.6526 34.4158 11.3473Z" fill="#DCE5E5"/>
<path d="M2.173 13.8368L2.87776 9.6684L2.99522 13.8368H3.81745L5.34443 9.6684L4.6984 13.8368H5.93173L6.87141 8.27893H5.40316L3.75872 11.6947L3.69999 8.27893H3.05395L1.05713 13.8368H2.173Z" fill="#DCE5E5"/>
<path d="M19.146 13.8368H20.3793C20.7317 11.9263 20.7904 10.3632 21.6127 10.6526C21.7301 9.89999 21.9063 9.61052 22.0238 9.32104C22.0238 9.32104 21.965 9.32104 21.7889 9.32104C21.2603 9.32104 20.8492 10.0158 20.8492 10.0158L20.9666 9.37894" fill="#DCE5E5"/>
<path d="M26.0762 10.4789C26.0762 10.4789 26.6048 10.2474 27.3683 10.2474C27.7794 10.2474 28.1318 10.3053 28.1318 10.6526C28.1318 10.8842 28.073 10.9421 28.073 10.9421C28.073 10.9421 27.7207 10.9421 27.5445 10.9421C26.546 10.9421 25.4302 11.3474 25.4302 12.6789C25.4302 13.721 26.1349 13.9526 26.546 13.9526C27.3683 13.9526 27.7207 13.4316 27.7794 13.4316L27.7207 13.8947H28.7778L29.2476 10.7105C29.2476 9.37894 28.073 9.32104 27.6032 9.32104L26.0762 10.4789ZM28.4841 11.8105C28.4841 11.9842 27.7794 12.9105 27.0746 12.9105C26.7222 12.9105 26.6048 12.621 26.6048 12.4474C26.6048 12.1579 26.781 11.7526 27.6619 11.7526C27.8968 11.8105 28.4841 11.8105 28.4841 11.8105Z" fill="#DCE5E5"/>
<path d="M29.0127 13.8368H30.246C30.5984 11.9263 30.6571 10.3632 31.4794 10.6526C31.5968 9.89999 31.773 9.61052 31.8905 9.32104C31.8905 9.32104 31.8317 9.32104 31.6556 9.32104C31.127 9.32104 30.7159 10.0158 30.7159 10.0158L30.8333 9.37894" fill="#DCE5E5"/>
</svg>
