<svg width="52" height="18" viewBox="0 0 52 18" fill="none" xmlns="http://www.w3.org/2000/svg">
<path d="M19 17L21.7317 1H26L23.3537 17H19Z" fill="#3C58BF"/>
<path d="M19 17L22.5 1H26L23.3537 17H19Z" fill="#3C58BF"/>
<path d="M38 0.715789C37.2157 0.357894 35.9608 0 34.3922 0C30.4706 0 27.6471 2.23684 27.6471 5.45789C27.6471 7.87368 29.6078 9.12631 31.1765 9.93158C32.7451 10.7368 33.2157 11.2737 33.2157 11.9895C33.2157 13.0632 31.9608 13.6 30.8627 13.6C29.2941 13.6 28.4314 13.3316 27.098 12.7053L26.549 12.4368L26 16.1053C26.9412 16.5526 28.6667 17 30.4706 17C34.6275 17 37.3725 14.7632 37.3725 11.3632C37.3725 9.48421 36.3529 8.05263 34 6.88947C32.5882 6.08421 31.7255 5.63684 31.7255 4.83158C31.7255 4.11579 32.4314 3.4 34 3.4C35.3333 3.4 36.2745 3.66842 36.9804 4.02632L37.3725 4.20526L38 0.715789Z" fill="#3C58BF"/>
<path d="M38 0.715789C37.2157 0.357894 35.9608 0 34.3922 0C30.4706 0 28.3529 2.23684 28.3529 5.45789C28.3529 7.87368 29.6078 9.12631 31.1765 9.93158C32.7451 10.7368 33.2157 11.2737 33.2157 11.9895C33.2157 13.0632 31.9608 13.6 30.8627 13.6C29.2941 13.6 28.4314 13.3316 27.098 12.7053L26.549 12.4368L26 16.1053C26.9412 16.5526 28.6667 17 30.4706 17C34.6275 17 37.3725 14.7632 37.3725 11.3632C37.3725 9.48421 36.3529 8.05263 34 6.88947C32.5882 6.08421 31.7255 5.63684 31.7255 4.83158C31.7255 4.11579 32.4314 3.4 34 3.4C35.3333 3.4 36.2745 3.66842 36.9804 4.02632L37.3725 4.20526L38 0.715789Z" fill="#3C58BF"/>
<path d="M45.3242 1C44.3352 1 43.5934 1.08889 43.1813 2.15556L37 17H41.4506L42.2747 14.3333H47.5494L48.044 17H52L48.5385 1H45.3242V1ZM43.4286 11.6667C43.6758 10.8667 45.0769 6.95556 45.0769 6.95556C45.0769 6.95556 45.4066 5.97778 45.6538 5.35556L45.9011 6.86667C45.9011 6.86667 46.7253 10.8667 46.8901 11.7556H43.4286V11.6667Z" fill="#3C58BF"/>
<path d="M46.3132 1C45.3242 1 44.5824 1.08889 44.1703 2.15556L37 17H41.4506L42.2747 14.3333H47.5494L48.044 17H52L48.5385 1H46.3132V1ZM43.4286 11.6667C43.7582 10.7778 45.0769 6.95556 45.0769 6.95556C45.0769 6.95556 45.4066 5.97778 45.6538 5.35556L45.9011 6.86667C45.9011 6.86667 46.7253 10.8667 46.8901 11.7556H43.4286V11.6667Z" fill="#3C58BF"/>
<path d="M11.25 12.1111L10.8333 9.8C10.0833 7.13333 7.66667 4.2 5 2.77778L8.75 17H13.25L20 1H15.5L11.25 12.1111Z" fill="#3C58BF"/>
<path d="M11.25 12.1111L10.8333 9.8C10.0833 7.13333 7.66667 4.2 5 2.77778L8.75 17H13.25L20 1H16.3333L11.25 12.1111Z" fill="#3C58BF"/>
<path d="M0 1L0.738806 1.16C5.99254 2.36 9.60448 5.4 11 9L9.52239 2.2C9.27612 1.24 8.53731 1 7.63433 1H0V1Z" fill="#FFBC00"/>
<path d="M0 1C5.25373 2.21212 9.60448 5.36364 11 9L9.60448 3.26263C9.35821 2.29293 8.53731 1.72727 7.63433 1.72727L0 1Z" fill="#F7981D"/>
<path d="M0 1C5.25373 2.21212 9.60448 5.36364 11 9L10.0149 5.84848C9.76866 4.87879 9.4403 3.90909 8.29105 3.50505L0 1Z" fill="#ED7C00"/>
<path d="M15.5997 11.2864L12.7933 8.2408L11.4727 11.6447L11.1425 9.40528C10.3997 6.71803 8.00602 3.76206 5.36475 2.32886L9.07903 16.6608H13.5362L15.5997 11.2864Z" fill="#3042B7"/>
<path d="M23.2764 16.6607L19.7272 12.7194L19.0669 16.6607H23.2764Z" fill="#3042B7"/>
<path d="M32.7679 11.1071C33.098 11.4654 33.2631 11.7341 33.1806 12.0924C33.1806 13.1673 31.8599 13.7048 30.7044 13.7048C29.0536 13.7048 28.1456 13.4361 26.7425 12.809L26.1647 12.5403L25.5869 16.2129C26.5774 16.6608 28.3933 17.1086 30.2917 17.1086C32.9329 17.1086 35.079 16.3025 36.3171 14.8693L32.7679 11.1071Z" fill="#3042B7"/>
<path d="M37.5552 16.6609H41.4345L42.2599 13.9736H47.5425L48.0377 16.6609H51.9996L50.5964 10.1219L45.6441 4.92657L45.8917 6.35977C45.8917 6.35977 46.7171 10.3906 46.8822 11.2864H43.4155C43.7456 10.3906 45.0663 6.53892 45.0663 6.53892C45.0663 6.53892 45.3964 5.5536 45.6441 4.92657" fill="#3042B7"/>
</svg>
