<svg width="32" height="21" viewBox="0 0 32 21" fill="none" xmlns="http://www.w3.org/2000/svg">
<path opacity="0.5" d="M28.7158 18.9152H28.7574H28.7158ZM28.7158 18.9152V18.4192H28.2158L28.7158 18.9152ZM28.7158 0.501247H28.7239L28.7321 0.500983C29.2235 0.485011 29.7013 0.664287 30.0609 0.999543C30.4184 1.33278 30.6302 1.7932 30.6509 2.28125V18.1523C30.6302 18.6403 30.4184 19.1007 30.0609 19.434C29.7013 19.7692 29.2235 19.9485 28.7321 19.9325L28.7239 19.9323H28.7158H2.43481H2.42669L2.41857 19.9325C1.92723 19.9485 1.44963 19.7693 1.08997 19.434C0.732519 19.1008 0.520689 18.6403 0.5 18.1523V2.28123C0.520689 1.79319 0.732518 1.33277 1.08997 0.999543C1.44963 0.664253 1.92723 0.485012 2.41857 0.500983L2.42669 0.501247H2.43481H28.7158ZM30.0278 2.27127V2.26187L30.0275 2.25247C30.0147 1.91254 29.8679 1.59151 29.619 1.35952C29.3725 1.12974 29.0457 1.00562 28.7087 1.01419H2.5918L2.44779 1.01045C2.10813 1.00163 1.77875 1.12744 1.53148 1.36062C1.28415 1.59385 1.13931 1.9154 1.1282 2.25492L1.12793 2.26309V2.27127V3.78421V4.28421H1.62793H29.5278H30.0278V3.78421V2.27127ZM30.0278 5.29824V4.79824H29.5278H1.62793H1.12793V5.29824V7.56826V8.06826H1.62793H29.5278H30.0278V7.56826V5.29824ZM28.7158 19.4192H29.2158V19.3229C29.3617 19.2644 29.4969 19.1792 29.6141 19.07C29.8608 18.8401 30.0076 18.5224 30.0225 18.1853L30.0229 18.1743V18.1632V9.08328V8.58328H29.5229H1.6228H1.1228V9.08328V11.3533V11.8533H1.6228H13.5979H13.6182L13.6384 11.8517C13.6744 11.8487 13.7103 11.8533 13.7439 11.8648C13.7775 11.8764 13.8085 11.8949 13.8349 11.9193C13.8616 11.9439 13.8826 11.9734 13.8968 12.0058C13.911 12.0382 13.9185 12.0736 13.9185 12.1098C13.9185 12.1458 13.911 12.1811 13.8968 12.2137C13.8826 12.246 13.8616 12.2756 13.8349 12.3001C13.8085 12.3245 13.7775 12.343 13.7439 12.3546C13.7099 12.3663 13.674 12.3708 13.6384 12.3679L13.6182 12.3662H13.5979H1.6228H1.1228V12.8662V15.1363V15.6363H1.6228H7.4458H7.46611L7.48635 15.6346C7.5219 15.6317 7.55782 15.6362 7.59176 15.6479C7.62582 15.6597 7.65693 15.6783 7.68306 15.7024C7.70925 15.7265 7.73025 15.7559 7.74468 15.7888C7.75893 15.8214 7.76636 15.8567 7.76636 15.8927C7.76636 15.9289 7.7589 15.9643 7.74468 15.9967C7.73025 16.0297 7.70925 16.0591 7.68306 16.0832C7.65693 16.1073 7.62582 16.1259 7.59176 16.1377C7.55819 16.1492 7.52229 16.1538 7.48635 16.1508L7.46611 16.1492H7.4458H1.6228H1.1228V16.6492V18.1623V18.1717L1.12316 18.1811C1.13596 18.5214 1.28329 18.8423 1.53185 19.074C1.77838 19.3038 2.10503 19.4278 2.44196 19.4192H28.7158Z" fill="#2E2F40" stroke="black"/>
</svg>
