<svg width="32" height="14" viewBox="0 0 32 14" fill="none" xmlns="http://www.w3.org/2000/svg">
<path d="M27.852 1.52599C29.552 3.48499 29.505 4.30099 29.528 5.20199C29.609 8.30199 25.794 6.07199 24.796 5.20199C18.587 -0.214009 18.107 0.0189907 15.869 1.03599L15.788 1.07899L15.708 1.03599C13.471 0.0189907 12.988 -0.213009 6.78104 5.20199C5.78104 6.07199 1.96804 8.30199 2.04604 5.20199C2.07004 4.30199 2.02704 3.48499 3.72404 1.52599C3.72404 1.52599 -1.14896 1.77099 0.424038 8.63399C1.19104 11.949 3.37504 17.94 15.786 9.80899C28.198 17.938 30.386 11.947 31.144 8.63199C32.726 1.76999 27.852 1.52599 27.852 1.52599Z" fill="#707070" fill-opacity="0.5"/>
</svg>
