<svg width="677" height="365" viewBox="0 0 677 365" fill="none" xmlns="http://www.w3.org/2000/svg">
<path d="M116.845 209.253H120.21L120.295 228.834L116.838 228.745L116.845 209.253Z" fill="#707070"/>
<path d="M112.012 215.229L116.921 215.314L116.839 228.791L111.923 228.713L112.012 215.229Z" fill="#707070" fill-opacity="0.5"/>
<path d="M424.546 364.596C495.003 364.596 552.12 331.656 552.12 291.022C552.12 250.389 495.003 217.448 424.546 217.448C354.089 217.448 296.972 250.389 296.972 291.022C296.972 331.656 354.089 364.596 424.546 364.596Z" fill="#707070" fill-opacity="0.5"/>
<path d="M493.255 77.4205C499.032 77.4205 503.714 72.7378 503.714 66.9615C503.714 61.1852 499.032 56.5025 493.255 56.5025C487.479 56.5025 482.796 61.1852 482.796 66.9615C482.796 72.7378 487.479 77.4205 493.255 77.4205Z" fill="#F8F8FF"/>
<path d="M347.724 78.0905C353.012 78.0905 357.298 73.8041 357.298 68.5165C357.298 63.2289 353.012 58.9425 347.724 58.9425C342.437 58.9425 338.15 63.2289 338.15 68.5165C338.15 73.8041 342.437 78.0905 347.724 78.0905Z" fill="#F8F8FF"/>
<path d="M337.312 74.4255C341.219 74.4255 344.385 71.2589 344.385 67.3525C344.385 63.4462 341.219 60.2795 337.312 60.2795C333.406 60.2795 330.239 63.4462 330.239 67.3525C330.239 71.2589 333.406 74.4255 337.312 74.4255Z" fill="#F8F8FF"/>
<path d="M326.819 195.333C326.819 195.333 302.08 233.513 360.973 238.146C419.866 242.779 435.663 236.986 445.717 235.829C455.771 234.672 485.024 213.241 534.578 239.884C568.135 257.929 603.717 236.993 620.233 224.242C636.749 211.491 646.804 197.595 638.904 195.278C631.004 192.961 326.819 195.333 326.819 195.333Z" fill="white"/>
<path d="M330.8 199.471C330.8 199.471 295.667 147.648 316.416 127.55C337.411 107.213 309.762 81.7595 319.04 52.1055C326.89 27.0055 374.806 -14.1565 418.761 4.86849C479.453 31.1395 479.168 36.9185 516.513 30.4535C553.858 23.9885 597.166 -11.2065 618.201 33.0775C630.666 59.3195 664.935 65.0775 673.309 89.4975C681.683 113.917 669.07 144.483 662.152 151.165C637.626 174.877 646 200.48 646 200.48L330.8 199.471Z" fill="#707070" fill-opacity="0.5"/>
<path opacity="0.19" d="M350.673 50.2505L351.034 195.474H466.326L465.965 50.6125L350.673 50.2505Z" fill="#CBC7D4"/>
<path opacity="0.2" d="M345.613 36.8775L469.578 37.2385L469.939 50.6105H345.613V36.8775Z" fill="white"/>
<path opacity="0.2" d="M469.578 77.3565H345.613V81.3325H469.578V77.3565Z" fill="white"/>
<path opacity="0.2" d="M465.603 80.9705H351.035V84.9465H465.603V80.9705Z" fill="white"/>
<path opacity="0.2" d="M465.241 49.5275H350.673V53.5035H465.241V49.5275Z" fill="white"/>
<path opacity="0.21" d="M470.301 195.177H346.336V199.153H470.301V195.177Z" fill="white"/>
<path opacity="0.2" d="M362.239 58.2015L358.263 62.5385V68.6825L361.877 72.2965L454.76 72.6575L458.374 69.4045V62.5375L454.037 58.2005L362.239 58.2015Z" fill="white"/>
<path opacity="0.1" d="M350.673 93.9815H357.903V98.6815H351.036L350.673 93.9815Z" fill="white"/>
<path opacity="0.2" d="M350.673 140.966H355.01V145.665H351.034L350.673 140.966Z" fill="white"/>
<path opacity="0.2" d="M401.271 134.099H389.706V138.436H401.271V134.099Z" fill="white"/>
<path opacity="0.2" d="M394.404 141.327H382.839V145.664H394.404V141.327Z" fill="white"/>
<path opacity="0.2" d="M415.366 141.688H403.801V146.025H415.366V141.688Z" fill="white"/>
<path opacity="0.2" d="M394.885 89.7235H383.32V94.0605H394.885V89.7235Z" fill="white"/>
<path opacity="0.2" d="M459.82 139.159H448.255V143.496H459.82V139.159Z" fill="white"/>
<path opacity="0.2" d="M461.627 86.0305H450.062V90.3675H461.627V86.0305Z" fill="white"/>
<path opacity="0.2" d="M456.402 153.612H439.795C437.901 153.612 436.365 155.147 436.365 157.042V192.887C436.365 194.781 437.901 196.317 439.795 196.317H456.402C458.297 196.317 459.832 194.781 459.832 192.887V157.042C459.832 155.147 458.297 153.612 456.402 153.612Z" fill="white"/>
<path d="M454.207 158.422H442.035C440.145 158.422 438.612 159.954 438.612 161.844C438.612 163.734 440.145 165.267 442.035 165.267H454.207C456.098 165.267 457.63 163.734 457.63 161.844C457.63 159.954 456.098 158.422 454.207 158.422Z" fill="#FBD072"/>
<path opacity="0.1" d="M357.378 108.464H359.738L386.092 108.439C386.092 108.439 387.538 100.488 381.755 95.7885C375.972 91.0895 369.984 91.0885 365.647 93.2585C361.31 95.4285 357.215 98.6795 357.378 108.464Z" fill="white"/>
<path opacity="0.2" d="M359.734 108.463L359.534 127.73H384.06V107.976L359.339 107.576L359.733 108.461" fill="white"/>
<path opacity="0.2" d="M359.535 127.73L357.923 127.615V130.875H385.647L385.51 127.615L359.535 127.73Z" fill="white"/>
<path d="M371.151 109.541H362.589V117.423H371.151V109.541Z" fill="#FBD072"/>
<path d="M381.075 109.449H372.893V117.331H381.075V109.449Z" fill="#FBD072"/>
<path d="M381.191 119.37H372.85V127.252H381.191V119.37Z" fill="#FBD072"/>
<path d="M371.231 119.367H362.669V127.249H371.231V119.367Z" fill="#FBD072"/>
<path opacity="0.2" d="M360.836 96.7205L359.836 108.521L364.736 108.362L365.736 93.2435L362.636 95.0615L361.219 96.3265" fill="white"/>
<path opacity="0.2" d="M383.053 96.9676L383.975 108.522L379.486 108.367L378.608 93.6855L381.376 95.4855L382.71 96.5765" fill="white"/>
<path opacity="0.2" d="M367.299 96.4895L366.63 108.405L370.906 108.477L371.864 91.8775L370.014 91.9285L367.78 92.3475" fill="white"/>
<path opacity="0.2" d="M377.346 96.4425L377.946 108.359L374.101 108.431L373.288 91.9465L375.305 92.3695L376.989 92.9085" fill="white"/>
<path opacity="0.1" d="M393.992 108.717H396.352L422.706 108.692C422.706 108.692 424.152 100.741 418.369 96.0425C412.586 91.3445 406.598 91.3425 402.261 93.5125C397.924 95.6825 393.833 98.9435 393.992 108.717Z" fill="white"/>
<path opacity="0.2" d="M396.353 108.713L396.153 127.984H420.675V108.226L395.954 107.826L396.354 108.711" fill="white"/>
<path opacity="0.2" d="M396.154 127.983L394.542 127.864V131.128H422.262L422.128 127.864L396.154 127.983Z" fill="white"/>
<path d="M407.77 109.789H399.208V117.671H407.77V109.789Z" fill="white"/>
<path d="M417.69 109.699H409.508V117.581H417.69V109.699Z" fill="white"/>
<path d="M417.805 119.62H409.464V127.502H417.805V119.62Z" fill="white"/>
<path d="M407.849 119.617H399.287V127.499H407.849V119.617Z" fill="white"/>
<path opacity="0.2" d="M397.452 96.9705L396.452 108.771L401.352 108.616L402.352 93.4975L399.252 95.3155L397.832 96.5805" fill="white"/>
<path opacity="0.2" d="M419.663 97.2145L420.585 108.772L416.096 108.617L415.218 93.9335L417.986 95.7335L419.32 96.8245" fill="white"/>
<path opacity="0.2" d="M403.915 96.7385L403.246 108.655L407.522 108.727L408.48 92.1265L406.63 92.1775L404.396 92.6005" fill="white"/>
<path opacity="0.2" d="M413.964 96.6955L414.564 108.608L410.722 108.68L409.905 92.1995L411.925 92.6185L413.606 93.1575" fill="white"/>
<path opacity="0.1" d="M430.109 108.717H432.469L458.823 108.692C458.823 108.692 460.269 100.741 454.486 96.0425C448.703 91.3445 442.715 91.3425 438.378 93.5125C434.041 95.6825 429.946 98.9435 430.109 108.717Z" fill="white"/>
<path opacity="0.2" d="M432.466 108.713L432.266 127.984H456.788V108.226L432.064 107.826L432.464 108.711" fill="white"/>
<path opacity="0.2" d="M432.266 127.983L430.654 127.864V131.128H458.378L458.241 127.864L432.266 127.983Z" fill="white"/>
<path d="M443.882 109.789H435.32V117.671H443.882V109.789Z" fill="white"/>
<path d="M453.802 109.699H445.62V117.581H453.802V109.699Z" fill="white"/>
<path d="M453.922 119.62H445.581V127.502H453.922V119.62Z" fill="white"/>
<path d="M443.962 119.617H435.4V127.499H443.962V119.617Z" fill="white"/>
<path opacity="0.2" d="M433.568 96.9705L432.568 108.771L437.468 108.616L438.458 93.4935L435.358 95.3115L433.938 96.5765" fill="white"/>
<path opacity="0.2" d="M455.779 97.2145L456.701 108.772L452.209 108.617L451.334 93.9335L454.102 95.7335L455.436 96.8245" fill="white"/>
<path opacity="0.2" d="M440.03 96.7385L439.361 108.655L443.637 108.727L444.591 92.1265L442.744 92.1775L440.51 92.6005" fill="white"/>
<path opacity="0.2" d="M450.077 96.6955L450.677 108.608L446.832 108.68L446.019 92.1995L448.036 92.6185L449.717 93.1575" fill="white"/>
<path opacity="0.2" d="M357.461 163.575H363.71L433.463 163.55C433.463 163.55 439.126 154.76 423.82 149.961C408.514 145.162 383.342 146.528 371.874 148.743C360.406 150.958 357.034 153.595 357.461 163.575Z" fill="white"/>
<path opacity="0.2" d="M358.375 163.753L357.764 195.243H433.264V162.958L357.153 162.307L358.375 163.753Z" fill="white"/>
<path d="M428.554 164.178H362.036V180.214H428.554V164.178Z" fill="#FBD072"/>
<path d="M404.651 182.799H385.492V190.681H404.651V182.799Z" fill="#FBD072"/>
<path d="M381.65 182.937H362.491V190.819H381.65V182.937Z" fill="#FBD072"/>
<path d="M427.926 182.937H408.767V190.819H427.926V182.937Z" fill="#FBD072"/>
<path opacity="0.2" d="M364.522 151.233L363.156 162.621L369.665 162.473L370.822 148.673L367.005 149.587L364.894 150.454" fill="white"/>
<path opacity="0.2" d="M375.264 151.348L374.164 162.512L380.695 162.43L381.889 147.305L378.701 147.68L375.821 147.947" fill="white"/>
<path opacity="0.2" d="M423.892 151.151L424.965 162.539L419.847 162.391L418.94 148.591L421.94 149.505L423.599 150.372" fill="white"/>
<path opacity="0.2" d="M415.399 151.262L416.31 162.426L410.871 162.342L409.884 147.221L412.537 147.598L414.937 147.865" fill="white"/>
<path opacity="0.2" d="M405.413 151.179L406.324 162.341L400.885 162.262L399.873 146.781L402.45 146.907L404.904 147.033" fill="#017DCE"/>
<path opacity="0.2" d="M393.587 151.594L394.498 162.758L389.059 162.679L388.047 147.2L390.758 147.106L393.306 147.052" fill="white"/>
<path opacity="0.07" d="M413.598 169.86C413.747 169.909 413.906 169.919 414.06 169.889C414.213 169.858 414.357 169.789 414.476 169.687C414.876 169.341 414.326 170.541 414.413 170.811C414.5 171.081 413.598 169.86 413.598 169.86Z" fill="black"/>
<path d="M404.365 211.456L401.957 211.928C401.957 211.928 401.373 213.564 401.099 214.445C401.081 214.492 401.026 214.645 400.99 214.745C400.953 214.894 400.935 215.047 400.935 215.201C400.936 215.586 401.051 215.963 401.264 216.284C401.477 216.606 401.78 216.858 402.135 217.01C403.029 217.403 403.722 217.765 404.671 217.01C405.62 216.255 405.784 215.783 405.383 214.477C404.982 213.171 404.361 211.477 404.361 211.457" fill="black"/>
<path d="M418.341 214.177C417.825 213.996 417.352 213.71 416.953 213.336C416.554 212.962 416.238 212.509 416.024 212.006L412.758 211.864C412.758 211.864 412.685 213.626 412.594 214.585C412.485 215.859 412.758 216.425 413.744 216.347C415.058 216.253 420.422 216.662 421.261 216.205C422.392 215.623 419.874 214.585 418.342 214.176" fill="black"/>
<path d="M399.328 171.753C399.328 171.753 398.106 173.2 397.722 177.101C397.529 181.368 397.823 185.643 398.598 189.842C398.998 191.273 400.605 204.659 401.006 205.635C401.449 207.717 401.766 209.824 401.955 211.943L404.546 212.006C404.546 212.006 405.312 205.053 405.312 203.213C405.312 201.373 406.389 183.96 406.312 182.686C406.235 181.412 406.586 181.821 406.586 181.821C406.586 181.821 408.849 188.05 409.524 189.088C410.199 190.126 411.403 192.155 411.403 192.155C411.403 192.155 411.677 198.683 412.003 202.455C412.329 206.227 412.678 212.176 412.678 212.176L416.163 212.113C416.163 212.113 416.963 202.172 416.963 200.08C416.963 197.988 417.693 192.97 417.693 192.388C417.693 191.806 415.43 181.645 415.43 181.645L413.854 171.737L399.328 171.753Z" fill="#3F3F3F"/>
<path d="M403.435 138.941C402.249 139.319 400.735 144.399 400.735 144.399L400.717 144.383L400.06 144.949L400.334 146.019L401.483 162.771L407.431 161.671L412.631 156.921L415.879 158.242C415.879 158.242 416.134 164.329 416.171 164.66C416.208 164.991 416.755 174.192 416.755 174.79C416.773 175.435 419.948 178.329 420.477 178.015C422.046 177.071 419.437 175.325 418.817 174.9C418.452 174.648 417.668 166.091 417.617 165.085C417.566 164.079 419.423 161.514 416.194 158.132C413.84 155.662 412.563 149.323 410.594 142.119C409.547 138.375 408.927 137.258 407.905 137.258C406.974 137.258 405.697 138.218 403.435 138.941Z" fill="url(#paint0_linear)"/>
<path d="M402.43 153.209C401.265 153.713 400.178 154.38 399.2 155.191C398.523 155.954 397.935 156.793 397.448 157.691C397.448 157.691 396.03 160.586 395.041 162.725C394.512 163.873 392.778 168.576 394.859 168.749C396.83 168.906 401.19 164.911 401.865 164.156L402.613 162.709C402.668 162.52 401.445 160.57 401.482 160.397C401.518 160.114 404.365 158.682 404.803 159.532C404.949 159.815 405.332 160.632 405.442 160.885C405.716 161.498 401.574 162.694 401.574 163.244C401.491 164.747 401.183 166.23 400.662 167.644C400.096 168.871 399.239 171.781 399.239 171.781L413.799 171.812C413.561 169.339 413.463 166.855 413.507 164.372C413.507 164.372 414.127 158.285 414.492 157.687C414.857 157.089 415.477 165.206 415.386 166.873C415.313 168.037 416.536 175.021 416.886 175.273C417.452 175.651 418.786 174.896 418.786 174.896C418.786 174.896 418.731 167.236 418.677 165.961C418.623 164.686 418.713 154.384 416.761 152.528C414.809 150.672 414.28 150.719 412.656 151.207C411.159 151.786 409.606 152.213 408.022 152.481C406.668 152.683 405.284 152.539 404 152.061C404.347 150.976 403.617 152.816 403.708 152.313" fill="url(#paint1_linear)"/>
<path d="M404.583 136.063C404.583 136.063 401.683 136.157 400.861 138.595C400.274 140.679 399.949 142.829 399.894 144.995C399.858 145.561 400.204 149.395 399.839 150.469C399.511 151.413 398.58 153.159 398.014 154.369C397.796 154.842 397.631 155.338 397.521 155.848L397.448 156.257C397.544 156.477 397.719 156.653 397.938 156.752C398.157 156.851 398.405 156.865 398.634 156.792C398.67 156.776 398.707 156.776 398.725 156.761C399.012 156.651 399.292 156.525 399.564 156.383C400.44 155.927 401.553 154.716 402.429 154.338C403.36 153.945 404.418 152.12 404.564 151.979C404.71 151.838 404.655 151.379 404.673 150.941C404.796 149.06 404.444 147.178 403.649 145.469C403.029 144.369 401.605 142.213 402.591 140.969C403.577 139.725 405.638 138.735 405.729 138.437C405.82 138.139 405.875 139.637 406.97 140.167C408.021 140.698 408.924 141.481 409.597 142.448C409.785 143.534 409.543 144.65 408.922 145.562C407.882 147.339 407.061 149.605 408.502 151.303C409.943 153.001 413.574 155.361 413.83 155.896C414.086 156.431 413.83 158.806 413.739 160.143C413.648 161.48 416.677 157.862 416.567 156.116C416.457 154.37 416.822 153.616 414.761 150.957C413.015 148.45 411.833 145.595 411.294 142.589C411.239 141.472 410.619 138.389 409.378 137.489C408.324 136.739 408.086 136 405.879 136C405.441 136 405.003 136.031 404.579 136.063" fill="url(#paint2_linear)"/>
<g opacity="0.07">
<g opacity="0.07">
<path opacity="0.07" d="M403.467 159.453C403.037 159.604 402.616 159.783 402.208 159.988L401.77 160.177C401.77 160.177 397.136 164.345 397.336 164.125C398.23 163.165 401.003 158.069 401.936 156.889C402.921 155.662 403.469 156.15 404.545 159.406" fill="black"/>
</g>
</g>
<g opacity="0.07">
<path opacity="0.07" d="M403.252 211.913C403.267 211.958 403.273 212.007 403.27 212.055C403.322 212.674 403.168 213.293 402.832 213.817C402.285 214.541 403.58 216.129 403.58 216.523C403.58 216.917 402.98 217.278 402.558 217.168C402.269 217.096 401.999 216.964 401.764 216.781C401.53 216.598 401.337 216.368 401.198 216.105C401.058 215.843 400.976 215.554 400.955 215.257C400.935 214.96 400.977 214.663 401.08 214.384C401.354 213.645 401.518 213 401.68 212.591C401.771 212.391 401.844 212.182 401.917 211.978C401.932 211.884 401.938 211.789 401.935 211.695C401.917 211.569 401.917 211.428 401.899 211.286C401.808 210.578 398.341 188.509 398.213 187.66C397.869 184.951 397.68 182.225 397.647 179.496C397.613 179.266 397.607 179.034 397.629 178.804C397.645 178.657 397.651 178.51 397.647 178.364C397.665 178.112 397.683 177.864 397.72 177.609C397.665 177.409 397.702 177.409 397.72 177.074C397.719 176.832 397.731 176.59 397.756 176.35C398.046 174.766 398.556 173.231 399.27 171.788L399.379 171.458C399.379 171.458 400.255 168.658 400.547 168.139C401.009 167.032 401.315 165.868 401.459 164.678C401.423 164.395 402.59 163.294 402.59 163.294L402.827 163.121C402.943 163.107 403.061 163.118 403.174 163.152C403.429 163.246 404.415 162.507 404.574 162.979C405.742 166.204 406.216 167.572 404.154 169.491C402.092 171.41 403.99 173.125 404.026 174.477C404.117 177.812 402.238 177.45 402.126 179.526C402.154 181.087 402.306 182.644 402.582 184.182C402.728 186.075 402.667 187.979 402.4 189.86C401.544 192.89 401.513 196.094 402.309 199.141C403.55 204.363 403.367 204.835 403.24 207.792C403.15 209.164 403.15 210.54 403.24 211.913" fill="black"/>
</g>
<path d="M401.335 157.958L401.371 157.942C401.517 157.879 402.371 157.502 402.977 157.297C403.652 157.061 404.477 159.043 404.677 159.436C404.695 159.467 404.695 159.467 404.549 159.483C404.058 159.529 403.57 159.608 403.089 159.719C402.558 159.858 402.049 160.07 401.575 160.348C401.311 159.961 401.097 159.544 400.936 159.105C400.845 158.905 400.644 158.366 400.827 158.24L401.335 157.958Z" fill="#EFEFEF"/>
<path d="M402.613 162.567C402.613 162.567 405.368 161.01 405.405 161.073C405.478 161.215 405.715 161.781 405.715 161.781C405.715 161.781 405.934 162.143 405.861 162.253C405.788 162.363 403.179 163.323 403.179 163.323C403.131 163.32 403.084 163.306 403.043 163.281C403.002 163.256 402.967 163.222 402.942 163.181C402.812 162.988 402.702 162.782 402.613 162.567V162.567Z" fill="#EFEFEF"/>
<path d="M21.2343 267.244C21.2343 267.244 -35.1997 214.944 35.9343 190.22C71.4083 177.894 79.7522 171.559 107.314 147.702C146.763 113.546 198.466 93.8025 265.682 154.025C332.898 214.248 383.622 232.919 339.369 269.025C289.626 309.61 319.887 330.479 313.649 341.919C311.989 344.962 301.476 331.947 278.324 345.348C225.593 375.87 198.757 329.435 159.978 341.017C123.402 351.942 104.608 327.778 92.7033 337.226C74.9473 351.326 63.8393 351.143 57.1663 347.434C51.5843 344.324 48.2973 337.903 48.5543 331.175C48.8483 323.53 48.9002 309.212 45.9862 298.791C41.5802 283.039 30.8583 274.984 21.2343 267.244Z" fill="#707070" fill-opacity="0.5"/>
<path d="M34.788 250.376C34.788 250.376 -19.6659 202.094 48.9661 179.276C83.1801 167.894 91.2341 162.05 117.815 140.021C155.875 108.488 205.74 90.2655 270.569 145.858C335.398 201.45 385.908 220.91 341.648 252.019C310.998 273.564 321.373 263.046 311.826 270.43C291.551 286.081 245.439 256.675 208.026 267.368C172.745 277.452 138.426 262.388 123.093 261.368C117.018 260.968 92.503 260.877 80.153 260.216C73.242 259.86 65.6231 262.873 56.0471 260.6C41.6211 257.17 44.068 257.526 34.788 250.376Z" fill="#707070" fill-opacity="0.5"/>
<path d="M95.1581 163.392L77.48 175.292C77.249 175.431 76.8401 172.92 76.5911 173.026L64.5541 177.65L64.415 264.06L139.656 263.135L139.083 146.022L116.201 146.232L95.1581 163.392Z" fill="#E9EDFB"/>
<path opacity="0.22" d="M89.5511 166.653L89.5661 166.645L89.5805 166.637C91.0587 165.786 92.3079 164.941 93.8362 163.907C94.4811 163.471 95.1757 163.001 95.9582 162.482L95.9589 162.482C96.0727 162.406 96.1849 162.332 96.2955 162.258C97.7394 161.299 98.9175 160.516 99.8968 159.775L99.8989 159.774L105.694 155.34L131.498 155.687L131.733 176.785L71.38 177.136L71.4111 175.542L89.5511 166.653Z" fill="white" stroke="black"/>
<path opacity="0.22" d="M71.4023 181.755L131.827 181.751V202.442L71.4023 202.564V181.755Z" fill="white" stroke="black"/>
<path opacity="0.22" d="M131.995 228.154L71.5732 228.275V207.458H131.995V228.154Z" fill="white" stroke="black"/>
<path opacity="0.22" d="M132.333 254.233L71.9111 254.355V233.538H132.333V254.233Z" fill="white" stroke="black"/>
<path d="M110.157 174.721V177.23L129.809 177.368V174.721H110.157Z" fill="#707070" fill-opacity="0.5"/>
<path d="M110.269 172.734L110.361 174.74L123.145 174.832L123.06 172.641L110.269 172.734Z" fill="#707070"/>
<path d="M125.034 188.301L122.114 186.683L114.637 201.142L117.554 203.042L125.034 188.301Z" fill="#707070"/>
<path d="M129.037 183.391H132.402L132.487 202.968L129.03 202.883L129.037 183.391Z" fill="#707070" fill-opacity="0.5"/>
<path d="M124.413 189.477L129.322 189.562L129.24 203.039L124.328 202.961L124.413 189.477Z" fill="#707070" fill-opacity="0.5"/>
<path opacity="0.56" d="M279.369 255.18C279.369 255.18 276.602 255.48 276.602 258.904C276.602 262.328 278.381 292.031 285.138 292.614C288.909 292.952 292.7 292.997 296.478 292.749C297.47 292.649 298.445 289.653 298.612 288.448C299.505 282.548 300.654 268.174 300.906 259.801C300.831 258.151 300.227 256.57 299.184 255.291C295.827 252.229 279.369 255.18 279.369 255.18Z" fill="#313131"/>
<path d="M293.821 253.918C293.821 253.918 294.888 238.662 306.811 232.018C314.28 227.856 314.786 213.412 313 210.146" stroke="white" stroke-width="3" stroke-linecap="round" stroke-linejoin="round"/>
<path opacity="0.59" d="M295.35 260.323C295.35 260.323 299.106 275.341 295.037 287.232Z" fill="white"/>
<path d="M288.842 254.234C288.842 254.234 284.642 233.479 294.864 221.023C298.951 216.043 305.012 206.042 304.959 201.219" stroke="white" stroke-width="3" stroke-linecap="round" stroke-linejoin="round"/>
<path d="M285.512 254.609C285.512 254.609 290.321 235.757 280.86 223.309C277.075 218.329 271.014 210.945 271.06 206.122" stroke="white" stroke-width="3" stroke-linecap="round" stroke-linejoin="round"/>
<path d="M283.616 254.758C283.616 254.758 284.327 224.748 254.552 216.478" stroke="white" stroke-width="3" stroke-linecap="round" stroke-linejoin="round"/>
<path opacity="0.73" d="M279.37 255.181C279.37 255.181 291.489 253.232 296.223 254.252C300.957 255.272 287.871 256.479 287.871 256.479C287.871 256.479 281.64 256.756 279.37 255.181Z" fill="white"/>
<path opacity="0.18" d="M132.342 258.354C132.342 258.354 118.683 247.58 116.375 237.012C114.067 226.444 119.067 219.12 126.375 217.968C133.683 216.816 138.113 213.344 163.695 222.009C189.277 230.674 218.714 215.276 218.714 215.276C218.714 215.276 242.77 204.21 254.639 206.91C268.156 209.98 271.03 218.161 267.377 232.784C263.724 247.407 251.277 258.465 251.277 258.465L132.342 258.354Z" fill="#FBD072"/>
<path opacity="0.18" d="M126.16 257.208C125.56 257.214 124.982 257.431 124.526 257.821C124.071 258.212 123.767 258.75 123.67 259.342C123.314 261.476 124.026 268.235 125.093 270.37C126.16 272.505 131.165 272.396 131.165 272.396L253.144 272.148C253.144 272.148 257.196 272.191 258.124 268.948C258.867 266.341 259.952 263.74 260.031 261.94C260.077 260.917 259.74 259.913 259.087 259.124C258.433 258.335 257.509 257.817 256.495 257.672C255.171 257.509 253.839 257.421 252.504 257.409C243.252 257.409 126.16 257.208 126.16 257.208Z" fill="#FBD072"/>
<path d="M120.469 290.284L128.65 272.499H135.05L126.516 290.284H120.469Z" fill="white"/>
<path d="M246.385 272.504L253.855 290.645L259.19 290.289L252.076 272.504H246.385Z" fill="white"/>
<path opacity="0.22" d="M134.415 257.401C134.415 257.401 123.171 248.725 122.645 245.114C121.959 240.437 126.202 233.448 142.645 236.543C159.088 239.638 188.075 248.01 203.786 243.723C219.497 239.436 239.274 221.518 240.696 220.572C242.118 219.626 258.93 211.345 262.75 223.962C266.57 236.579 251.211 257.262 251.211 257.262L134.415 257.401Z" fill="#FBD072"/>
<path d="M176.733 156.614C176.733 156.614 191.004 150.436 202.66 157.567C198.567 159.451 194.087 160.347 189.583 160.181C185.08 160.016 180.678 158.794 176.733 156.614V156.614Z" fill="white"/>
<path d="M183.637 139.9C183.637 139.9 177.415 142.219 178.682 152.762Z" fill="white"/>
<path d="M209.928 247.638C208.309 244.949 207.019 244.238 203.014 244.126C199.009 244.014 193.685 244.071 193.685 244.071L193.63 249.751C193.63 249.751 198.048 252.303 200.407 253.565C200.544 253.647 200.928 253.865 201.207 254.031C201.622 254.226 202.054 254.382 202.497 254.497C204.829 254.991 206.942 254.744 208.451 253.235C210.119 251.561 211.545 250.327 209.928 247.638Z" fill="#EEEEEE"/>
<path d="M179.717 242.588C179.58 242.698 179.223 242.972 178.976 243.164C178.646 243.476 178.344 243.816 178.071 244.179C176.754 246.155 176.178 248.212 177.028 250.188C177.961 252.356 178.592 254.167 181.665 253.645C184.738 253.123 185.918 252.191 187.509 248.545C189.1 244.899 191.049 239.902 191.021 239.902L185.78 237.734C185.78 237.734 181.775 240.886 179.717 242.588Z" fill="#EEEEEE"/>
<path d="M194.039 244.317C194.039 244.317 194.121 250.051 193.188 250.188C192.255 250.325 179.388 248.459 174.255 248.188C169.122 247.917 157.492 244.596 151.784 238.144C146.845 232.574 147.613 226.399 151.263 226.399C154.913 226.399 158.263 223.3 167.534 227.717C175.223 231.298 183.678 232.919 192.146 232.436C197.661 231.997 213.109 229.143 214.316 228.265C215.523 227.387 221.316 224.865 229.38 225.741C237.444 226.617 233.633 233.011 231.932 235.481C229.545 238.911 223.893 242.589 219.173 242.753C214.453 242.917 194.039 244.317 194.039 244.317Z" fill="#3F3F3F"/>
<path d="M184.491 144.03C181.775 145.018 178.317 158.463 178.317 158.463L178.262 158.408L177.878 160.274L177.412 162.712L178.317 177.312L187.097 181.702L207.264 187.135L212.834 195.065C212.834 195.065 225.318 207.765 225.401 208.647C225.484 209.529 211.984 213.998 210.694 214.19C207.594 214.656 230.532 209.032 223.179 200.114C220.051 196.3 215.469 184.831 206.387 177.23C201.119 172.84 202.601 160.355 200.735 152.453C198.403 142.575 196.976 139.612 194.644 139.612C192.531 139.612 189.595 142.136 184.492 144.03" fill="url(#paint3_linear)"/>
<path d="M213.027 175.942C208.801 172.073 207.375 171.142 203.67 172.457C199.965 173.772 198.155 174.981 193.106 175.805C189.998 176.343 186.801 175.952 183.914 174.68L173.514 175.723C172.197 175.558 157.408 203.323 157.051 209.088C156.832 212.628 164.871 218.088 167.121 218.637C168.026 218.856 169.645 210.131 170.167 209.337L166.792 208.294C167.935 205.783 169.265 203.361 170.771 201.05C171.183 200.419 174.393 195.123 174.832 193.093C174.914 193.285 175.381 197.126 175.82 198.361C176.643 200.638 177.768 201.928 177.768 203.739C177.768 205.55 177.548 212.739 176.231 215.977C174.914 219.215 172.993 226.706 172.993 226.706L206.249 226.514C206.249 226.514 205.042 212.214 205.536 207.307C205.246 205.685 205.407 204.014 206.002 202.478C207.621 197.759 208.087 190.734 207.813 189.637C207.401 187.908 217.581 202.537 219.804 206.237C220.737 207.774 208.088 210.49 207.045 211.67C205.945 212.905 208.115 216.252 208.115 216.252C208.115 216.252 230.176 213.563 230.066 210.188C229.956 206.813 217.939 180.413 213.027 175.942Z" fill="url(#paint4_linear)"/>
<path d="M187.152 136.128C185.291 136.28 183.524 137.01 182.098 138.215C180.671 139.42 179.657 141.04 179.195 142.85C177.411 149.326 177.165 158.35 177.11 159.75C177.055 161.232 177.741 169.902 174.421 173.524C171.567 176.652 172.721 179.67 172.006 182.167L171.677 186.313C171.709 186.555 171.808 186.784 171.964 186.973C172.119 187.162 172.324 187.304 172.555 187.383C172.994 187.52 174.531 186.807 174.805 186.697C178.646 185.16 178.646 183.926 180.105 182.691C181.312 181.676 184.632 179.316 185.62 178.383C186.092 178.036 186.489 177.597 186.786 177.092C187.083 176.587 187.275 176.027 187.349 175.447C187.541 169.438 186.498 163.895 185.181 160.959C183.864 158.023 181.34 153.059 183.452 149.764C185.564 146.469 189.379 143.179 189.598 142.356C189.817 141.533 189.927 145.539 192.26 146.938C194.434 148.116 196.182 149.95 197.254 152.179C197.854 153.77 198.654 156.487 196.454 161.179C194.254 165.871 192.477 171.908 195.577 176.38C198.677 180.852 205.208 185.68 206.277 187.932C207.484 190.432 206.332 196.301 206.112 199.84C205.892 203.379 213.027 193.694 212.812 189.084C212.597 184.474 213.361 182.499 208.943 175.42C204.525 168.341 201.643 156.213 201.535 153.277C201.427 150.341 200.103 142.192 197.442 139.863C195.142 137.887 194.642 135.963 189.924 135.963C188.998 135.962 188.073 136.017 187.153 136.128" fill="url(#paint5_linear)"/>
<path opacity="0.07" d="M173.077 234.246L204.247 234.411C204.247 234.411 200.598 237.265 198.842 237.594C197.086 237.923 189.568 241.655 186.769 240.228C184.793 239.157 173.077 234.246 173.077 234.246Z" fill="black"/>
<path opacity="0.07" d="M190.445 164.252C190.445 164.252 193.353 164.993 194.561 163.292C197.277 159.451 194.808 165.24 194.808 165.24C194.41 166.326 194.161 167.461 194.067 168.615C194.122 169.74 190.939 164.415 190.445 164.252Z" fill="black"/>
<path opacity="0.07" d="M178.812 184.008C178.249 184.521 177.848 185.189 177.66 185.929C177.262 187.947 176.509 189.879 175.437 191.636C174.696 192.736 175.108 196.987 176.343 199.676C176.924 200.706 177.402 201.79 177.77 202.914L177.688 206.814H181.035C181.035 206.814 183.889 207.114 183.285 204.756C182.764 202.671 180.047 194.906 181.885 193.204C185.342 190.049 180.98 183.738 182.598 181.704C183.998 179.948 185.998 178.686 185.998 178.11C185.998 177.89 185.477 178.604 185.12 178.851C184.434 179.345 184.077 179.729 183.501 180.113C182.87 180.525 181.91 181.213 181.278 181.677C180.372 182.359 179.545 183.141 178.812 184.008V184.008Z" fill="black"/>
<path d="M167.632 211.785C167.614 211.242 167.812 210.715 168.183 210.319C168.553 209.923 169.066 209.69 169.608 209.672C171.608 209.59 214.031 209.645 214.031 209.645C214.031 209.645 215.897 209.865 215.952 211.374C216.007 212.883 216.007 235.3 216.007 235.3C216.011 235.537 215.966 235.773 215.876 235.992C215.786 236.212 215.652 236.411 215.483 236.578C215.314 236.745 215.112 236.875 214.891 236.962C214.67 237.049 214.434 237.09 214.196 237.083C212.358 237.138 169.114 237.138 169.114 237.138C168.664 237.02 168.264 236.758 167.976 236.391C167.689 236.024 167.53 235.573 167.523 235.108C167.55 233.492 167.632 211.785 167.632 211.785Z" fill="white"/>
<path d="M191.942 225.228C192.957 225.228 193.78 224.406 193.78 223.39C193.78 222.375 192.957 221.552 191.942 221.552C190.927 221.552 190.104 222.375 190.104 223.39C190.104 224.406 190.927 225.228 191.942 225.228Z" fill="#707070"/>
<path d="M191.942 225.228C192.957 225.228 193.78 224.406 193.78 223.39C193.78 222.375 192.957 221.552 191.942 221.552C190.927 221.552 190.104 222.375 190.104 223.39C190.104 224.406 190.927 225.228 191.942 225.228Z" fill="url(#paint6_linear)"/>
<path d="M199.53 287.894L203.112 287.848L202.984 304.948H199.445L199.53 287.894Z" fill="#F5F5FC"/>
<path opacity="0.21" d="M409.36 217C421.787 217 431.86 216.328 431.86 215.5C431.86 214.671 421.787 214 409.36 214C396.934 214 386.86 214.671 386.86 215.5C386.86 216.328 396.934 217 409.36 217Z" fill="#0C0B0B"/>
<defs>
<linearGradient id="paint0_linear" x1="400.06" y1="157.648" x2="420.971" y2="157.648" gradientUnits="userSpaceOnUse">
<stop stop-color="#F87B58"/>
<stop offset="0.5" stop-color="#FABFA7"/>
<stop offset="1" stop-color="#F89C51"/>
</linearGradient>
<linearGradient id="paint1_linear" x1="406.324" y1="150.919" x2="406.324" y2="175.378" gradientUnits="userSpaceOnUse">
<stop stop-color="#2C3134"/>
<stop offset="1" stop-color="white"/>
</linearGradient>
<linearGradient id="paint2_linear" x1="407.009" y1="136" x2="407.009" y2="160.433" gradientUnits="userSpaceOnUse">
<stop/>
<stop offset="1" stop-color="#717070"/>
</linearGradient>
<linearGradient id="paint3_linear" x1="177.412" y1="176.914" x2="225.402" y2="176.914" gradientUnits="userSpaceOnUse">
<stop stop-color="#FBBEBE"/>
<stop offset="1" stop-color="white"/>
</linearGradient>
<linearGradient id="paint4_linear" x1="193.557" y1="171.895" x2="193.557" y2="226.706" gradientUnits="userSpaceOnUse">
<stop stop-color="#2C3134"/>
<stop offset="1" stop-color="white"/>
</linearGradient>
<linearGradient id="paint5_linear" x1="192.247" y1="135.963" x2="192.247" y2="200.601" gradientUnits="userSpaceOnUse">
<stop/>
<stop offset="1" stop-color="#9E9E9E"/>
</linearGradient>
<linearGradient id="paint6_linear" x1="190.203" y1="222.291" x2="192.769" y2="225.004" gradientUnits="userSpaceOnUse">
<stop stop-color="#FBD072"/>
<stop offset="1" stop-color="#D6A763"/>
</linearGradient>
</defs>
</svg>
