<svg width="302" height="229" viewBox="0 0 302 229" fill="none" xmlns="http://www.w3.org/2000/svg">
<path d="M62.5785 96.5562L61.3631 96.9511C61.2605 96.9849 61.1522 96.998 61.0444 96.9897C60.9367 96.9815 60.8317 96.9519 60.7354 96.9029C60.6391 96.8538 60.5535 96.7862 60.4835 96.7039C60.4134 96.6216 60.3604 96.5263 60.3274 96.4234L59.9322 95.2071C59.8119 94.8046 59.543 94.4629 59.18 94.2514C58.8171 94.0399 58.3872 93.9745 57.9777 94.0684C57.7678 94.1252 57.5716 94.224 57.4009 94.3588C57.2302 94.4936 57.0886 94.6615 56.9846 94.8525C56.8806 95.0435 56.8164 95.2536 56.7958 95.4701C56.7753 95.6866 56.7988 95.905 56.8649 96.1122L57.2883 97.4151C57.322 97.5177 57.3352 97.626 57.3269 97.7338C57.3186 97.8415 57.2891 97.9465 57.24 98.0428C57.191 98.1391 57.1234 98.2247 57.0411 98.2947C56.9588 98.3647 56.8634 98.4178 56.7606 98.4508L55.5452 98.8457C55.1434 98.9656 54.8021 99.2337 54.5904 99.5956C54.3788 99.9576 54.3125 100.386 54.405 100.795C54.4618 101.005 54.5606 101.202 54.6953 101.372C54.8301 101.543 54.9981 101.685 55.1891 101.789C55.3801 101.893 55.5902 101.957 55.8067 101.977C56.0232 101.998 56.2416 101.974 56.4488 101.908L57.7516 101.485C57.8543 101.451 57.9626 101.438 58.0703 101.446C58.1781 101.455 58.2831 101.484 58.3794 101.533C58.4756 101.582 58.5612 101.65 58.6313 101.732C58.7013 101.814 58.7543 101.91 58.7874 102.013L59.1823 103.228C59.3019 103.631 59.5707 103.974 59.934 104.186C60.2972 104.398 60.7276 104.464 61.1376 104.369C61.3475 104.313 61.5438 104.214 61.7145 104.079C61.8852 103.944 62.0268 103.776 62.1308 103.585C62.2348 103.394 62.299 103.184 62.3195 102.968C62.3401 102.751 62.3166 102.533 62.2504 102.326L61.8277 101.025C61.7939 100.922 61.7808 100.814 61.7891 100.706C61.7974 100.598 61.8269 100.493 61.8759 100.397C61.925 100.301 61.9926 100.215 62.0749 100.145C62.1572 100.075 62.2525 100.022 62.3554 99.989L63.6583 99.5657C63.8648 99.4974 64.0553 99.3881 64.2184 99.2442C64.3815 99.1003 64.5137 98.9248 64.6071 98.7284C64.7005 98.532 64.7531 98.3187 64.7618 98.1014C64.7705 97.8841 64.7351 97.6673 64.6577 97.4641C64.4857 97.0816 64.1775 96.7768 63.7932 96.609C63.4089 96.4412 62.9759 96.4224 62.5785 96.5562V96.5562Z" fill="#FEEB72"/>
<path d="M5.16669 77.6484L4.5639 77.4867C4.46142 77.4593 4.37406 77.3922 4.32102 77.3003C4.26799 77.2084 4.25363 77.0992 4.2811 76.9967L4.44298 76.393C4.50021 76.1962 4.48046 75.9851 4.38773 75.8024C4.29501 75.6196 4.13626 75.479 3.94368 75.409C3.84274 75.3765 3.73626 75.3648 3.63066 75.3745C3.52507 75.3843 3.42255 75.4153 3.32928 75.4658C3.23601 75.5163 3.15394 75.5851 3.08801 75.6682C3.02208 75.7512 2.97366 75.8468 2.94567 75.9491L2.77266 76.5944C2.75905 76.6451 2.73559 76.6927 2.7036 76.7344C2.67161 76.776 2.63173 76.811 2.58623 76.8373C2.54073 76.8635 2.4905 76.8806 2.43841 76.8874C2.38633 76.8943 2.3334 76.8908 2.28266 76.8772L1.67891 76.7153C1.48279 76.6582 1.27229 76.6775 1.08988 76.7695C0.907466 76.8614 0.766703 77.0191 0.695976 77.2107C0.663457 77.3117 0.651725 77.4182 0.661485 77.5238C0.671246 77.6293 0.702299 77.7319 0.752769 77.8251C0.803239 77.9184 0.87208 78.0005 0.95514 78.0664C1.0382 78.1323 1.13375 78.1808 1.23604 78.2087L1.88133 78.3818C1.93207 78.3954 1.97964 78.4188 2.02131 78.4508C2.06298 78.4828 2.09795 78.5227 2.12421 78.5682C2.15047 78.6137 2.16751 78.6639 2.17436 78.716C2.18121 78.7681 2.17773 78.821 2.16413 78.8718L2.00251 79.4745C1.94445 79.6713 1.96347 79.8827 2.05571 80.0659C2.14795 80.2492 2.30649 80.3904 2.49911 80.4609C2.60004 80.4934 2.70652 80.5051 2.81212 80.4954C2.91771 80.4856 3.02024 80.4546 3.1135 80.4041C3.20677 80.3536 3.28884 80.2848 3.35477 80.2017C3.4207 80.1187 3.46912 80.0231 3.49711 79.9208L3.6696 79.2775C3.69708 79.175 3.76414 79.0876 3.85603 79.0346C3.94793 78.9816 4.05712 78.9672 4.1596 78.9947L4.80489 79.1677C4.90746 79.1946 5.01442 79.2005 5.11932 79.185C5.22422 79.1694 5.32489 79.1328 5.41525 79.0773C5.50561 79.0218 5.58379 78.9486 5.64506 78.862C5.70634 78.7755 5.74945 78.6774 5.77179 78.5737C5.80357 78.3719 5.75926 78.1655 5.64745 77.9945C5.53564 77.8235 5.36431 77.7002 5.16669 77.6484V77.6484Z" fill="#F98585"/>
<path d="M74.4045 55.9236L73.6156 55.4681C73.5488 55.4299 73.4903 55.3788 73.4434 55.3179C73.3965 55.257 73.3621 55.1874 73.3422 55.1131C73.3223 55.0388 73.3173 54.9613 73.3274 54.8851C73.3376 54.8089 73.3628 54.7354 73.4014 54.669L73.8589 53.8765C74.0143 53.621 74.0666 53.3159 74.0053 53.0232C73.944 52.7305 73.7737 52.4721 73.5288 52.3003C73.399 52.2171 73.2537 52.161 73.1017 52.1352C72.9497 52.1094 72.7941 52.1146 72.6441 52.1503C72.4941 52.186 72.3529 52.2517 72.2288 52.3432C72.1048 52.4348 72.0004 52.5504 71.9221 52.6832L71.4341 53.5285C71.3959 53.5952 71.3448 53.6537 71.2839 53.7006C71.223 53.7476 71.1534 53.782 71.0791 53.8019C71.0048 53.8218 70.9273 53.8268 70.8511 53.8166C70.7749 53.8064 70.7014 53.7813 70.635 53.7426L69.8426 53.2851C69.587 53.1298 69.2819 53.0775 68.9892 53.1388C68.6965 53.2001 68.4381 53.3704 68.2663 53.6152C68.183 53.7453 68.1268 53.8908 68.1011 54.0431C68.0754 54.1953 68.0807 54.3512 68.1167 54.5014C68.1527 54.6516 68.2186 54.793 68.3106 54.917C68.4026 55.0411 68.5186 55.1453 68.6519 55.2235L69.4971 55.7115C69.5638 55.7497 69.6223 55.8007 69.6693 55.8616C69.7162 55.9226 69.7506 55.9922 69.7705 56.0665C69.7904 56.1407 69.7954 56.2182 69.7852 56.2944C69.7751 56.3707 69.7499 56.4441 69.7112 56.5106L69.2537 57.303C69.0985 57.5584 69.0461 57.8633 69.1072 58.1559C69.1684 58.4485 69.3384 58.7069 69.583 58.8787C69.713 58.962 69.8585 59.0182 70.0108 59.044C70.1631 59.0697 70.319 59.0644 70.4692 59.0284C70.6194 58.9924 70.7607 58.9264 70.8848 58.8344C71.0089 58.7425 71.1131 58.6264 71.1912 58.4932L71.6777 57.6505C71.7159 57.5838 71.767 57.5253 71.8279 57.4784C71.8888 57.4315 71.9584 57.3971 72.0327 57.3772C72.107 57.3573 72.1845 57.3523 72.2607 57.3624C72.3369 57.3726 72.4104 57.3977 72.4768 57.4364L73.3221 57.9244C73.4563 58.0007 73.6046 58.0491 73.7581 58.0667C73.9115 58.0844 74.0669 58.0708 74.215 58.0269C74.363 57.983 74.5007 57.9096 74.6197 57.8112C74.7387 57.7128 74.8367 57.5914 74.9076 57.4542C75.0286 57.1821 75.0441 56.8748 74.9511 56.5919C74.8582 56.309 74.6633 56.0708 74.4045 55.9236V55.9236Z" fill="#2EE2B1"/>
<path d="M233.258 13.5634L231.888 12.9816C231.771 12.9327 231.666 12.8614 231.577 12.7716C231.488 12.6818 231.419 12.5753 231.371 12.4583C231.324 12.3414 231.3 12.2162 231.302 12.09C231.303 11.9639 231.329 11.8393 231.379 11.7233L231.963 10.3483C232.166 9.9013 232.191 9.39395 232.033 8.92924C231.875 8.46453 231.546 8.07729 231.113 7.84616C230.885 7.73563 230.637 7.67241 230.384 7.6603C230.13 7.64819 229.877 7.68745 229.639 7.77571C229.402 7.86398 229.184 7.99941 229 8.17388C228.816 8.34835 228.669 8.55824 228.569 8.79093L227.943 10.2645C227.894 10.3809 227.823 10.4864 227.733 10.575C227.643 10.6636 227.537 10.7335 227.42 10.7808C227.303 10.828 227.178 10.8517 227.051 10.8503C226.925 10.8489 226.801 10.8226 226.685 10.7728L225.31 10.189C224.863 9.9864 224.355 9.96146 223.891 10.1193C223.426 10.2771 223.039 10.6059 222.808 11.0388C222.697 11.267 222.634 11.5152 222.622 11.7685C222.61 12.0218 222.649 12.2749 222.737 12.5127C222.825 12.7504 222.961 12.9678 223.135 13.1518C223.31 13.3358 223.52 13.4827 223.752 13.5834L225.226 14.209C225.342 14.2579 225.448 14.3292 225.536 14.419C225.625 14.5088 225.695 14.6153 225.742 14.7323C225.789 14.8492 225.813 14.9744 225.812 15.1006C225.81 15.2267 225.784 15.3513 225.734 15.4673L225.152 16.8377C224.949 17.2848 224.924 17.7925 225.082 18.2577C225.239 18.7228 225.568 19.1104 226.001 19.3417C226.23 19.4523 226.478 19.5155 226.732 19.5276C226.985 19.5396 227.238 19.5002 227.476 19.4118C227.714 19.3233 227.932 19.1877 228.116 19.0129C228.3 18.8382 228.446 18.628 228.547 18.3951L229.172 16.9215C229.221 16.8051 229.293 16.6996 229.382 16.611C229.472 16.5224 229.579 16.4525 229.696 16.4052C229.813 16.358 229.938 16.3343 230.064 16.3357C230.19 16.3371 230.315 16.3634 230.431 16.4132L231.904 17.0388C232.138 17.1365 232.39 17.1858 232.644 17.1837C232.897 17.1816 233.148 17.1282 233.381 17.0266C233.613 16.925 233.823 16.7774 233.997 16.5927C234.171 16.408 234.305 16.19 234.393 15.9518C234.533 15.4838 234.494 14.9805 234.285 14.5393C234.075 14.0981 233.709 13.7504 233.258 13.5634Z" fill="#FEEB72"/>
<path d="M257.029 146.269L256.268 146.051C256.203 146.032 256.143 146.002 256.091 145.96C256.038 145.919 255.994 145.867 255.962 145.809C255.93 145.75 255.909 145.686 255.902 145.619C255.894 145.553 255.9 145.485 255.919 145.421L256.137 144.661C256.214 144.413 256.194 144.145 256.081 143.911C255.968 143.678 255.77 143.496 255.528 143.402C255.401 143.359 255.267 143.342 255.133 143.353C254.999 143.363 254.869 143.4 254.75 143.461C254.63 143.523 254.525 143.608 254.439 143.711C254.353 143.814 254.289 143.933 254.251 144.062L254.017 144.877C253.999 144.941 253.968 145.001 253.926 145.054C253.885 145.106 253.833 145.15 253.775 145.182C253.716 145.215 253.652 145.235 253.585 145.243C253.519 145.25 253.452 145.244 253.387 145.226L252.627 145.008C252.379 144.931 252.111 144.951 251.878 145.064C251.644 145.177 251.462 145.374 251.369 145.616C251.326 145.744 251.309 145.878 251.319 146.012C251.329 146.145 251.366 146.276 251.428 146.395C251.489 146.514 251.574 146.62 251.677 146.705C251.78 146.791 251.9 146.855 252.028 146.894L252.843 147.127C252.908 147.146 252.968 147.176 253.02 147.218C253.073 147.259 253.116 147.311 253.149 147.37C253.181 147.428 253.202 147.492 253.209 147.559C253.217 147.625 253.211 147.693 253.192 147.757L252.974 148.517C252.896 148.766 252.915 149.035 253.029 149.269C253.142 149.504 253.34 149.686 253.583 149.78C253.71 149.823 253.845 149.84 253.979 149.83C254.113 149.819 254.243 149.782 254.362 149.72C254.482 149.658 254.587 149.573 254.673 149.47C254.759 149.366 254.822 149.246 254.861 149.118L255.095 148.302C255.113 148.237 255.144 148.177 255.185 148.125C255.227 148.072 255.278 148.028 255.337 147.996C255.395 147.963 255.46 147.943 255.526 147.935C255.593 147.928 255.66 147.934 255.724 147.953L256.539 148.186C256.669 148.222 256.804 148.231 256.938 148.214C257.071 148.196 257.199 148.151 257.315 148.083C257.43 148.015 257.531 147.924 257.611 147.815C257.69 147.707 257.747 147.584 257.778 147.453C257.823 147.198 257.77 146.936 257.632 146.717C257.493 146.498 257.278 146.338 257.029 146.269Z" fill="#E8EEFF"/>
<path d="M292.862 80.904L292.267 81.2338C292.217 81.2617 292.162 81.2795 292.106 81.2861C292.049 81.2927 291.991 81.288 291.937 81.2722C291.882 81.2565 291.83 81.23 291.786 81.1944C291.741 81.1588 291.704 81.1146 291.677 81.0646L291.348 80.4722C291.245 80.276 291.071 80.1263 290.862 80.0535C290.653 79.9808 290.423 79.9904 290.221 80.0804C290.118 80.131 290.027 80.2019 289.952 80.2886C289.878 80.3754 289.822 80.4763 289.787 80.5853C289.752 80.6943 289.74 80.8091 289.751 80.923C289.762 81.0368 289.795 81.1473 289.85 81.2479L290.201 81.8805C290.228 81.9303 290.246 81.9852 290.253 82.0419C290.259 82.0986 290.255 82.156 290.239 82.2109C290.223 82.2658 290.197 82.317 290.161 82.3616C290.125 82.4062 290.081 82.4433 290.031 82.4708L289.439 82.7991C289.241 82.9022 289.091 83.0769 289.018 83.2874C288.945 83.498 288.955 83.7285 289.046 83.9317C289.097 84.0348 289.168 84.1265 289.255 84.2013C289.342 84.2762 289.443 84.3327 289.553 84.3674C289.662 84.402 289.777 84.4142 289.892 84.4031C290.006 84.3921 290.117 84.3579 290.218 84.3029L290.85 83.9522C290.9 83.9242 290.954 83.9062 291.011 83.8993C291.067 83.8924 291.125 83.8967 291.179 83.912C291.234 83.9273 291.285 83.9533 291.33 83.9885C291.375 84.0237 291.412 84.0674 291.44 84.117L291.77 84.712C291.873 84.9096 292.048 85.0603 292.258 85.1333C292.469 85.2062 292.699 85.1959 292.903 85.1045C293.006 85.0539 293.097 84.9829 293.172 84.8959C293.247 84.8089 293.304 84.7076 293.338 84.5982C293.373 84.4888 293.385 84.3735 293.374 84.2592C293.363 84.145 293.329 84.0341 293.274 83.9334L292.921 83.2964C292.893 83.2466 292.875 83.1918 292.868 83.135C292.862 83.0783 292.867 83.0209 292.882 82.966C292.898 82.9111 292.924 82.8599 292.96 82.8153C292.996 82.7707 293.04 82.7336 293.09 82.7062L293.723 82.3555C293.823 82.2993 293.91 82.2234 293.98 82.1323C294.05 82.0413 294.101 81.9371 294.13 81.8259C294.158 81.7147 294.164 81.5989 294.147 81.4854C294.129 81.372 294.089 81.2632 294.028 81.1657C293.901 80.9855 293.711 80.859 293.495 80.8107C293.28 80.7623 293.054 80.7956 292.862 80.904Z" fill="#E8EEFF"/>
<path d="M223.24 116.703L222.929 116.875C222.903 116.89 222.874 116.899 222.844 116.903C222.814 116.906 222.784 116.904 222.755 116.896C222.726 116.887 222.7 116.873 222.676 116.855C222.653 116.836 222.633 116.813 222.619 116.787L222.447 116.476C222.392 116.373 222.301 116.295 222.191 116.258C222.081 116.22 221.961 116.225 221.854 116.272C221.801 116.299 221.753 116.336 221.713 116.381C221.674 116.427 221.644 116.48 221.626 116.537C221.608 116.594 221.601 116.654 221.606 116.714C221.612 116.774 221.629 116.832 221.658 116.885L221.842 117.217C221.856 117.243 221.866 117.272 221.869 117.302C221.873 117.332 221.87 117.362 221.862 117.391C221.854 117.42 221.84 117.447 221.821 117.47C221.802 117.493 221.779 117.513 221.753 117.527L221.442 117.7C221.34 117.754 221.262 117.846 221.224 117.955C221.186 118.065 221.191 118.185 221.239 118.292C221.265 118.346 221.303 118.394 221.348 118.433C221.394 118.473 221.447 118.502 221.505 118.521C221.562 118.539 221.623 118.545 221.683 118.539C221.743 118.534 221.802 118.516 221.855 118.487L222.184 118.304C222.21 118.29 222.239 118.28 222.268 118.277C222.298 118.273 222.328 118.276 222.357 118.284C222.386 118.292 222.413 118.306 222.436 118.325C222.46 118.344 222.479 118.367 222.494 118.393L222.666 118.704C222.72 118.807 222.811 118.887 222.921 118.925C223.032 118.964 223.152 118.959 223.259 118.912C223.313 118.885 223.361 118.848 223.401 118.802C223.44 118.756 223.47 118.703 223.488 118.645C223.506 118.588 223.513 118.527 223.507 118.467C223.501 118.407 223.483 118.349 223.454 118.296L223.27 117.963C223.255 117.937 223.246 117.908 223.242 117.878C223.239 117.848 223.241 117.818 223.25 117.789C223.258 117.761 223.272 117.734 223.29 117.71C223.309 117.687 223.332 117.667 223.359 117.653L223.691 117.469C223.744 117.439 223.79 117.399 223.827 117.351C223.864 117.303 223.89 117.249 223.905 117.19C223.92 117.132 223.923 117.071 223.914 117.011C223.905 116.951 223.884 116.894 223.852 116.843C223.785 116.748 223.686 116.681 223.573 116.655C223.46 116.63 223.341 116.647 223.24 116.703V116.703Z" fill="#D1DCFC"/>
<path d="M95.1421 72.2992L94.6432 72.184C94.6011 72.1744 94.5612 72.1566 94.526 72.1315C94.4908 72.1064 94.4608 72.0747 94.4379 72.038C94.415 72.0013 94.3995 71.9605 94.3925 71.9178C94.3854 71.8752 94.3868 71.8315 94.3967 71.7894L94.5121 71.2896C94.554 71.127 94.5327 70.9546 94.4525 70.8071C94.3723 70.6596 94.239 70.548 94.0798 70.4949C93.996 70.4712 93.9083 70.4646 93.822 70.4756C93.7357 70.4867 93.6524 70.515 93.5773 70.5591C93.5023 70.6031 93.4369 70.6619 93.3851 70.7319C93.3333 70.8018 93.2963 70.8816 93.2761 70.9663L93.1526 71.5012C93.143 71.5433 93.1252 71.5832 93.1001 71.6184C93.0751 71.6537 93.0433 71.6836 93.0066 71.7065C92.97 71.7295 92.9291 71.7449 92.8865 71.752C92.8438 71.759 92.8002 71.7576 92.7581 71.7477L92.2553 71.6317C92.0927 71.5897 91.9203 71.611 91.7728 71.6913C91.6253 71.7715 91.5138 71.9047 91.4607 72.064C91.4369 72.1477 91.4303 72.2354 91.4414 72.3218C91.4524 72.4081 91.4808 72.4913 91.5248 72.5664C91.5688 72.6415 91.6276 72.7069 91.6976 72.7587C91.7676 72.8104 91.8473 72.8475 91.932 72.8676L92.4669 72.9911C92.5091 73.0007 92.5489 73.0186 92.5842 73.0436C92.6194 73.0687 92.6493 73.1004 92.6723 73.1371C92.6952 73.1738 92.7106 73.2146 92.7177 73.2573C92.7248 73.2999 92.7233 73.3436 92.7135 73.3857L92.5983 73.8846C92.5563 74.0471 92.5776 74.2196 92.6579 74.3671C92.7381 74.5145 92.8713 74.6261 93.0306 74.6792C93.1144 74.703 93.202 74.7095 93.2884 74.6985C93.3747 74.6875 93.4579 74.6591 93.533 74.6151C93.6081 74.571 93.6735 74.5123 93.7253 74.4423C93.777 74.3723 93.8141 74.2926 93.8342 74.2079L93.9568 73.6768C93.9664 73.6347 93.9843 73.5948 94.0093 73.5596C94.0344 73.5244 94.0662 73.4944 94.1028 73.4715C94.1395 73.4486 94.1804 73.4331 94.223 73.4261C94.2657 73.419 94.3093 73.4204 94.3514 73.4303L94.8863 73.5538C94.9713 73.5728 95.0592 73.5745 95.1448 73.5586C95.2304 73.5428 95.3119 73.5097 95.3844 73.4616C95.4569 73.4134 95.5188 73.351 95.5666 73.2783C95.6144 73.2055 95.6469 73.1238 95.6622 73.0381C95.6818 72.8725 95.6395 72.7055 95.5435 72.5692C95.4475 72.4328 95.3046 72.3367 95.1421 72.2992V72.2992Z" fill="#E8EEFF"/>
<path d="M171.137 28.5122L170.706 29.0437C170.67 29.0889 170.625 29.1264 170.575 29.1541C170.524 29.1818 170.468 29.1992 170.411 29.2053C170.353 29.2113 170.295 29.2059 170.239 29.1893C170.184 29.1728 170.132 29.1454 170.088 29.1088L169.554 28.6764C169.382 28.5318 169.162 28.4577 168.938 28.469C168.714 28.4802 168.502 28.5761 168.346 28.7372C168.269 28.824 168.211 28.9255 168.174 29.0355C168.137 29.1454 168.123 29.2617 168.132 29.3773C168.142 29.4929 168.174 29.6055 168.228 29.7082C168.282 29.811 168.356 29.9018 168.445 29.9753L169.016 30.4373C169.061 30.4735 169.098 30.5183 169.126 30.569C169.154 30.6198 169.171 30.6756 169.177 30.7331C169.183 30.7907 169.178 30.8488 169.161 30.9043C169.145 30.9597 169.117 31.0113 169.081 31.0561L168.645 31.5939C168.501 31.7654 168.426 31.9854 168.438 32.2095C168.449 32.4336 168.545 32.645 168.706 32.8012C168.793 32.8781 168.894 32.9366 169.004 32.9734C169.114 33.0102 169.23 33.0244 169.346 33.0151C169.462 33.0059 169.574 32.9734 169.677 32.9197C169.78 32.866 169.871 32.792 169.944 32.7023L170.406 32.1319C170.442 32.0868 170.487 32.0493 170.538 32.0216C170.589 31.9938 170.644 31.9764 170.702 31.9704C170.759 31.9643 170.818 31.9698 170.873 31.9863C170.928 32.0029 170.98 32.0303 171.025 32.0669L171.557 32.498C171.729 32.6426 171.949 32.7167 172.173 32.7054C172.397 32.6942 172.608 32.5983 172.764 32.4372C172.841 32.3504 172.9 32.2489 172.937 32.1389C172.973 32.029 172.988 31.9127 172.978 31.7971C172.969 31.6815 172.937 31.569 172.883 31.4662C172.829 31.3634 172.755 31.2726 172.666 31.1991L172.101 30.7415C172.056 30.7053 172.018 30.6606 171.99 30.6098C171.963 30.559 171.945 30.5032 171.939 30.4457C171.933 30.3881 171.938 30.33 171.955 30.2745C171.972 30.2191 171.999 30.1675 172.036 30.1227L172.498 29.5523C172.57 29.4617 172.623 29.3575 172.655 29.2458C172.686 29.1341 172.694 29.0173 172.679 28.9023C172.664 28.7873 172.626 28.6765 172.567 28.5766C172.508 28.4766 172.43 28.3896 172.337 28.3206C172.149 28.1969 171.922 28.1479 171.7 28.1833C171.478 28.2188 171.277 28.3361 171.137 28.5122V28.5122Z" fill="#E8EEFF"/>
<path d="M133.143 2.29917L132.644 2.184C132.602 2.1744 132.562 2.15656 132.527 2.1315C132.492 2.10644 132.462 2.07466 132.439 2.03799C132.416 2.00132 132.401 1.96048 132.393 1.91782C132.386 1.87516 132.388 1.83152 132.398 1.78942L132.513 1.28957C132.555 1.12699 132.534 0.954557 132.453 0.807073C132.373 0.659588 132.24 0.548041 132.081 0.494949C131.997 0.471183 131.909 0.464612 131.823 0.475631C131.737 0.486651 131.653 0.515033 131.578 0.559068C131.503 0.603103 131.438 0.66188 131.386 0.731859C131.334 0.801838 131.297 0.881571 131.277 0.966254L131.154 1.50118C131.144 1.54335 131.126 1.5832 131.101 1.61844C131.076 1.65368 131.044 1.68362 131.008 1.70654C130.971 1.72945 130.93 1.74489 130.887 1.75196C130.845 1.75903 130.801 1.7576 130.759 1.74774L130.256 1.63167C130.094 1.58972 129.921 1.61102 129.774 1.69126C129.626 1.7715 129.515 1.90471 129.462 2.064C129.438 2.14773 129.431 2.23542 129.442 2.32176C129.453 2.4081 129.482 2.49132 129.526 2.56641C129.57 2.64149 129.629 2.70689 129.699 2.75865C129.769 2.81042 129.848 2.84748 129.933 2.86762L130.468 2.99111C130.51 3.00071 130.55 3.01855 130.585 3.04361C130.62 3.06867 130.65 3.10045 130.673 3.13712C130.696 3.17379 130.712 3.21463 130.719 3.25729C130.726 3.29995 130.724 3.34359 130.714 3.38569L130.599 3.88457C130.557 4.04714 130.579 4.21958 130.659 4.36706C130.739 4.51455 130.872 4.6261 131.032 4.67919C131.115 4.70295 131.203 4.70952 131.289 4.6985C131.376 4.68749 131.459 4.6591 131.534 4.61507C131.609 4.57103 131.674 4.51226 131.726 4.44228C131.778 4.3723 131.815 4.29257 131.835 4.20788L131.958 3.67685C131.967 3.63469 131.985 3.59484 132.01 3.55959C132.035 3.52435 132.067 3.49441 132.104 3.4715C132.14 3.44858 132.181 3.43315 132.224 3.42607C132.267 3.419 132.31 3.42043 132.352 3.43029L132.887 3.55379C132.972 3.57282 133.06 3.57445 133.146 3.5586C133.231 3.54276 133.313 3.50975 133.385 3.46156C133.458 3.41338 133.52 3.35103 133.568 3.27825C133.615 3.20548 133.648 3.12379 133.663 3.03811C133.683 2.87251 133.64 2.70553 133.544 2.56917C133.449 2.43281 133.306 2.33667 133.143 2.29917V2.29917Z" fill="#E8EEFF"/>
<path d="M95.1421 107.299L94.6432 107.184C94.6011 107.174 94.5612 107.157 94.526 107.132C94.4908 107.106 94.4608 107.075 94.4379 107.038C94.415 107.001 94.3995 106.96 94.3925 106.918C94.3854 106.875 94.3868 106.832 94.3967 106.789L94.5121 106.29C94.554 106.127 94.5327 105.955 94.4525 105.807C94.3723 105.66 94.239 105.548 94.0798 105.495C93.996 105.471 93.9083 105.465 93.822 105.476C93.7357 105.487 93.6524 105.515 93.5773 105.559C93.5023 105.603 93.4369 105.662 93.3851 105.732C93.3333 105.802 93.2963 105.882 93.2761 105.966L93.1526 106.501C93.143 106.543 93.1252 106.583 93.1001 106.618C93.0751 106.654 93.0433 106.684 93.0066 106.707C92.97 106.729 92.9291 106.745 92.8865 106.752C92.8438 106.759 92.8002 106.758 92.7581 106.748L92.2553 106.632C92.0927 106.59 91.9203 106.611 91.7728 106.691C91.6253 106.772 91.5138 106.905 91.4607 107.064C91.4369 107.148 91.4303 107.235 91.4414 107.322C91.4524 107.408 91.4808 107.491 91.5248 107.566C91.5688 107.641 91.6276 107.707 91.6976 107.759C91.7676 107.81 91.8473 107.847 91.932 107.868L92.4669 107.991C92.5091 108.001 92.5489 108.019 92.5842 108.044C92.6194 108.069 92.6493 108.1 92.6723 108.137C92.6952 108.174 92.7106 108.215 92.7177 108.257C92.7248 108.3 92.7233 108.344 92.7135 108.386L92.5983 108.885C92.5563 109.047 92.5776 109.22 92.6579 109.367C92.7381 109.515 92.8713 109.626 93.0306 109.679C93.1144 109.703 93.202 109.71 93.2884 109.699C93.3747 109.687 93.4579 109.659 93.533 109.615C93.6081 109.571 93.6735 109.512 93.7253 109.442C93.777 109.372 93.8141 109.293 93.8342 109.208L93.9568 108.677C93.9664 108.635 93.9843 108.595 94.0093 108.56C94.0344 108.524 94.0662 108.494 94.1028 108.471C94.1395 108.449 94.1804 108.433 94.223 108.426C94.2657 108.419 94.3093 108.42 94.3514 108.43L94.8863 108.554C94.9713 108.573 95.0592 108.574 95.1448 108.559C95.2304 108.543 95.3119 108.51 95.3844 108.462C95.4569 108.413 95.5188 108.351 95.5666 108.278C95.6144 108.205 95.6469 108.124 95.6622 108.038C95.6818 107.873 95.6395 107.706 95.5435 107.569C95.4475 107.433 95.3046 107.337 95.1421 107.299V107.299Z" fill="#D1DCFC"/>
<path d="M33.1421 67.2992L32.6432 67.184C32.6011 67.1744 32.5612 67.1566 32.526 67.1315C32.4908 67.1064 32.4608 67.0747 32.4379 67.038C32.415 67.0013 32.3995 66.9605 32.3925 66.9178C32.3854 66.8752 32.3868 66.8315 32.3967 66.7894L32.5121 66.2896C32.554 66.127 32.5327 65.9546 32.4525 65.8071C32.3723 65.6596 32.239 65.548 32.0798 65.4949C31.996 65.4712 31.9083 65.4646 31.822 65.4756C31.7357 65.4867 31.6524 65.515 31.5773 65.5591C31.5023 65.6031 31.4369 65.6619 31.3851 65.7319C31.3333 65.8018 31.2963 65.8816 31.2761 65.9663L31.1526 66.5012C31.143 66.5433 31.1252 66.5832 31.1001 66.6184C31.0751 66.6537 31.0433 66.6836 31.0066 66.7065C30.97 66.7295 30.9291 66.7449 30.8865 66.752C30.8438 66.759 30.8002 66.7576 30.7581 66.7477L30.2553 66.6317C30.0927 66.5897 29.9203 66.611 29.7728 66.6913C29.6253 66.7715 29.5138 66.9047 29.4607 67.064C29.4369 67.1477 29.4303 67.2354 29.4414 67.3218C29.4524 67.4081 29.4808 67.4913 29.5248 67.5664C29.5688 67.6415 29.6276 67.7069 29.6976 67.7587C29.7676 67.8104 29.8473 67.8475 29.932 67.8676L30.4669 67.9911C30.5091 68.0007 30.5489 68.0186 30.5842 68.0436C30.6194 68.0687 30.6493 68.1004 30.6723 68.1371C30.6952 68.1738 30.7106 68.2146 30.7177 68.2573C30.7248 68.2999 30.7233 68.3436 30.7135 68.3857L30.5983 68.8846C30.5563 69.0471 30.5776 69.2196 30.6579 69.3671C30.7381 69.5145 30.8713 69.6261 31.0306 69.6792C31.1144 69.703 31.202 69.7095 31.2884 69.6985C31.3747 69.6875 31.4579 69.6591 31.533 69.6151C31.6081 69.571 31.6735 69.5123 31.7253 69.4423C31.777 69.3723 31.8141 69.2926 31.8342 69.2079L31.9568 68.6768C31.9664 68.6347 31.9843 68.5948 32.0093 68.5596C32.0344 68.5244 32.0662 68.4944 32.1028 68.4715C32.1395 68.4486 32.1804 68.4331 32.223 68.4261C32.2657 68.419 32.3093 68.4204 32.3514 68.4303L32.8863 68.5538C32.9713 68.5728 33.0592 68.5745 33.1448 68.5586C33.2304 68.5428 33.3119 68.5097 33.3844 68.4616C33.4569 68.4134 33.5188 68.351 33.5666 68.2783C33.6144 68.2055 33.6469 68.1238 33.6622 68.0381C33.6818 67.8725 33.6395 67.7055 33.5435 67.5692C33.4475 67.4328 33.3046 67.3367 33.1421 67.2992V67.2992Z" fill="#E8EEFF"/>
<path d="M68.1388 32.9245L67.5756 32.7945C67.5279 32.7837 67.4827 32.7636 67.4428 32.7353C67.4029 32.707 67.369 32.6711 67.3431 32.6296C67.3172 32.5881 67.2997 32.5419 67.2918 32.4936C67.2838 32.4453 67.2855 32.396 67.2968 32.3483L67.427 31.7842C67.4734 31.6003 67.4483 31.4056 67.3567 31.2395C67.2651 31.0734 67.114 30.9483 66.9337 30.8893C66.8393 30.8625 66.7406 30.8551 66.6432 30.8674C66.5459 30.8797 66.4521 30.9115 66.3674 30.961C66.2827 31.0104 66.2088 31.0764 66.1502 31.1551C66.0916 31.2337 66.0495 31.3234 66.0264 31.4187L65.8869 32.0228C65.8761 32.0706 65.856 32.1157 65.8277 32.1556C65.7994 32.1955 65.7635 32.2294 65.722 32.2553C65.6805 32.2813 65.6343 32.2987 65.586 32.3066C65.5377 32.3146 65.4884 32.3129 65.4407 32.3016L64.8766 32.1714C64.6927 32.125 64.498 32.1502 64.3319 32.2417C64.1658 32.3333 64.0407 32.4844 63.9817 32.6647C63.9548 32.7593 63.9474 32.8584 63.9599 32.9559C63.9723 33.0535 64.0044 33.1475 64.0541 33.2323C64.1039 33.3171 64.1703 33.391 64.2493 33.4495C64.3283 33.508 64.4184 33.5499 64.514 33.5727L65.1182 33.7122C65.1659 33.723 65.211 33.7431 65.2509 33.7714C65.2908 33.7997 65.3247 33.8356 65.3507 33.8771C65.3766 33.9186 65.394 33.9648 65.402 34.0131C65.4099 34.0614 65.4082 34.1107 65.3969 34.1584L65.2667 34.7225C65.2192 34.9069 65.2436 35.1024 65.3351 35.2693C65.4266 35.4363 65.5782 35.5621 65.7591 35.6213C65.8537 35.6482 65.9528 35.6556 66.0503 35.6431C66.1479 35.6307 66.2419 35.5986 66.3267 35.5489C66.4116 35.4991 66.4854 35.4327 66.544 35.3537C66.6025 35.2747 66.6444 35.1846 66.6672 35.0889L66.8066 34.4848C66.8174 34.4371 66.8375 34.392 66.8658 34.3521C66.8941 34.3122 66.93 34.2783 66.9715 34.2523C67.013 34.2264 67.0592 34.209 67.1075 34.201C67.1558 34.1931 67.2052 34.1948 67.2528 34.206L67.8569 34.3455C67.9529 34.367 68.0522 34.3688 68.1489 34.3508C68.2455 34.3329 68.3376 34.2956 68.4195 34.2412C68.5014 34.1867 68.5714 34.1163 68.6254 34.034C68.6793 33.9518 68.7161 33.8596 68.7334 33.7628C68.7561 33.5741 68.7078 33.3838 68.5978 33.2289C68.4879 33.074 68.3243 32.9654 68.1388 32.9245V32.9245Z" fill="#E8EEFF"/>
<path d="M47.751 153.785C50.5124 153.785 52.751 151.546 52.751 148.785C52.751 146.024 50.5124 143.785 47.751 143.785C44.9896 143.785 42.751 146.024 42.751 148.785C42.751 151.546 44.9896 153.785 47.751 153.785Z" fill="white"/>
<path d="M47.751 152.535C49.822 152.535 51.501 150.856 51.501 148.785C51.501 146.714 49.822 145.035 47.751 145.035C45.6799 145.035 44.001 146.714 44.001 148.785C44.001 150.856 45.6799 152.535 47.751 152.535Z" stroke="#E8EEFF" stroke-width="2.5"/>
<path d="M214.251 73.41C214.872 73.41 215.376 72.9064 215.376 72.285C215.376 71.6637 214.872 71.16 214.251 71.16C213.63 71.16 213.126 71.6637 213.126 72.285C213.126 72.9064 213.63 73.41 214.251 73.41Z" stroke="#E8EEFF" stroke-width="0.75"/>
<path d="M206.251 92.41C206.872 92.41 207.376 91.9064 207.376 91.285C207.376 90.6637 206.872 90.16 206.251 90.16C205.63 90.16 205.126 90.6637 205.126 91.285C205.126 91.9064 205.63 92.41 206.251 92.41Z" stroke="#D1DCFC" stroke-width="0.75"/>
<path d="M114.251 55.785C117.289 55.785 119.751 53.3225 119.751 50.285C119.751 47.2474 117.289 44.785 114.251 44.785C111.213 44.785 108.751 47.2474 108.751 50.285C108.751 53.3225 111.213 55.785 114.251 55.785Z" fill="white"/>
<path d="M114.251 54.785C116.736 54.785 118.751 52.7703 118.751 50.285C118.751 47.7997 116.736 45.785 114.251 45.785C111.766 45.785 109.751 47.7997 109.751 50.285C109.751 52.7703 111.766 54.785 114.251 54.785Z" stroke="#F98585" stroke-width="2"/>
<path d="M294.251 118.785C297.289 118.785 299.751 116.323 299.751 113.285C299.751 110.247 297.289 107.785 294.251 107.785C291.213 107.785 288.751 110.247 288.751 113.285C288.751 116.323 291.213 118.785 294.251 118.785Z" fill="white"/>
<path d="M294.251 117.785C296.736 117.785 298.751 115.77 298.751 113.285C298.751 110.8 296.736 108.785 294.251 108.785C291.766 108.785 289.751 110.8 289.751 113.285C289.751 115.77 291.766 117.785 294.251 117.785Z" stroke="#229FF2" stroke-width="2"/>
<path d="M251.251 182.035C252.77 182.035 254.001 180.804 254.001 179.285C254.001 177.766 252.77 176.535 251.251 176.535C249.732 176.535 248.501 177.766 248.501 179.285C248.501 180.804 249.732 182.035 251.251 182.035Z" stroke="#FEEB72" stroke-width="1.5"/>
<path d="M201.251 53.035C202.77 53.035 204.001 51.8038 204.001 50.285C204.001 48.7662 202.77 47.535 201.251 47.535C199.732 47.535 198.501 48.7662 198.501 50.285C198.501 51.8038 199.732 53.035 201.251 53.035Z" stroke="#FEEB72" stroke-width="1.5"/>
<path d="M291.121 154.946L296.51 147.812L300.012 156.038L291.121 154.946Z" stroke="#F98585" stroke-width="2" stroke-miterlimit="10" stroke-linecap="round"/>
<path d="M247.508 97.7579L252.992 93.1666L254.243 100.208L247.508 97.7579Z" stroke="#2EE2B1" stroke-width="1.75" stroke-miterlimit="10" stroke-linecap="round"/>
<path d="M235.558 93.6429L235.852 90.3359L238.574 92.2369L235.558 93.6429Z" stroke="#E8EDFC" stroke-width="0.75" stroke-miterlimit="10" stroke-linecap="round"/>
<path d="M152.5 229C198.063 229 235 192.063 235 146.5C235 100.937 198.063 64 152.5 64C106.937 64 70 100.937 70 146.5C70 192.063 106.937 229 152.5 229Z" fill="#F5F6FA"/>
<path d="M147.103 170.696L144.014 117.851C143.885 115.637 144.641 113.461 146.116 111.804C147.59 110.147 149.663 109.143 151.877 109.014C154.092 108.885 156.267 109.641 157.924 111.115C159.581 112.59 160.585 114.663 160.714 116.877C160.742 117.201 160.742 117.527 160.714 117.851L157.594 170.696C157.514 172.033 156.926 173.288 155.951 174.206C154.976 175.124 153.688 175.635 152.349 175.635C151.01 175.635 149.721 175.124 148.746 174.206C147.771 173.288 147.184 172.033 147.103 170.696V170.696Z" fill="url(#paint0_linear)"/>
<path d="M152.3 189.698C155.062 189.698 157.3 187.46 157.3 184.698C157.3 181.937 155.062 179.698 152.3 179.698C149.539 179.698 147.3 181.937 147.3 184.698C147.3 187.46 149.539 189.698 152.3 189.698Z" fill="url(#paint1_linear)"/>
<defs>
<linearGradient id="paint0_linear" x1="144.452" y1="122.394" x2="167.562" y2="128.53" gradientUnits="userSpaceOnUse">
<stop stop-color="#FBD072"/>
<stop offset="1" stop-color="#D6A763"/>
</linearGradient>
<linearGradient id="paint1_linear" x1="147.57" y1="181.708" x2="154.55" y2="189.088" gradientUnits="userSpaceOnUse">
<stop stop-color="#FBD072"/>
<stop offset="1" stop-color="#D6A763"/>
</linearGradient>
</defs>
</svg>
